<svg width="421" height="341" viewBox="0 0 421 341" fill="none" xmlns="http://www.w3.org/2000/svg">
<g filter="url(#filter0_d_855_4927)">
<rect width="314.4" height="279.2" rx="38.4" transform="matrix(0.97237 0.233445 -0.409764 0.912192 114.406 0)" fill="white" shape-rendering="crispEdges"/>
<rect x="0.450085" y="0.91651" width="312.8" height="277.6" rx="37.6" transform="matrix(0.97237 0.233445 -0.409764 0.912192 114.794 -0.0245931)" stroke="#0051D7" stroke-width="1.6" shape-rendering="crispEdges"/>
<path d="M247.364 84.0656L130.413 122.642L120.343 228.69L230.079 255.035L307.97 165.27L246.922 84.2828" stroke="#3C3C43" stroke-opacity="0.6" stroke-width="0.96"/>
<path d="M284.761 161.03L287.539 164.719L287.1 165.013L288.295 166.6L286.784 168.343L287.172 168.588L283.66 172.636L283.271 172.39L279.759 176.438L280.147 176.684L276.635 180.732L276.247 180.486L272.734 184.533L273.123 184.779L269.61 188.827L269.222 188.581L265.71 192.629L266.098 192.875L262.586 196.922L262.197 196.677L258.685 200.725L259.073 200.971L255.561 205.019L255.173 204.772L251.66 208.82L252.049 209.066L248.536 213.114L248.148 212.868L244.636 216.916L245.024 217.162L241.512 221.21L241.124 220.963L237.611 225.012L238 225.256L234.487 229.305L234.099 229.06L230.587 233.108L230.975 233.353L227.463 237.401L227.074 237.155L225.562 238.897L223.433 238.386L223.233 238.83L218.285 237.643L218.484 237.198L213.536 236.01L213.336 236.455L208.388 235.267L208.588 234.822L203.639 233.634L203.44 234.079L198.492 232.891L198.691 232.446L193.743 231.258L193.543 231.703L188.595 230.515L188.795 230.07L183.846 228.882L183.647 229.327L178.698 228.139L178.898 227.694L173.95 226.506L173.75 226.951L168.801 225.763L169.001 225.318L164.052 224.13L163.853 224.575L158.904 223.387L159.104 222.942L154.156 221.754L153.956 222.199L149.008 221.011L149.208 220.566L144.259 219.378L144.06 219.823L139.111 218.635L139.311 218.19L137.181 217.679L137.377 215.62L136.864 215.649L137.319 210.867L137.83 210.839L138.285 206.056L137.773 206.085L138.226 201.304L138.739 201.274L139.193 196.493L138.681 196.521L139.135 191.739L139.647 191.71L140.101 186.928L139.588 186.958L140.043 182.175L140.556 182.146L141.009 177.364L140.497 177.393L140.95 172.612L141.464 172.582L141.918 167.8L141.405 167.829L141.86 163.047L142.371 163.018L142.826 158.236L142.313 158.266L142.767 153.484L142.768 153.484L143.28 153.454L143.734 148.672L143.222 148.701L143.675 143.92L144.188 143.89L144.642 139.108L144.129 139.138L144.584 134.355L145.097 134.326L145.291 132.268L147.542 131.508L147.425 131.081L152.655 129.314L152.771 129.74L158 127.973L157.884 127.546L163.113 125.779L163.229 126.205L168.459 124.438L168.341 124.011L173.57 122.244L173.687 122.67L178.916 120.903L178.799 120.476L184.028 118.709L184.145 119.136L189.374 117.368L189.257 116.941L194.487 115.174L194.603 115.601L199.832 113.833L199.715 113.406L204.944 111.639L205.06 112.066L210.29 110.298L210.173 109.872L215.402 108.104L215.519 108.531L220.748 106.763L220.631 106.337L225.86 104.569L225.977 104.996L231.205 103.228L231.089 102.802L236.318 101.034L236.434 101.461L238.686 100.699L239.881 102.288L240.32 101.995L243.098 105.685L242.659 105.978L245.437 109.668L245.876 109.375L248.652 113.064L248.653 113.064L248.213 113.357L250.991 117.047L251.43 116.754L254.208 120.443L253.769 120.737L256.547 124.426L256.986 124.133L259.763 127.823L259.324 128.116L262.101 131.806L262.541 131.512L265.318 135.202L265.319 135.202L264.879 135.495L267.657 139.185L268.096 138.892L270.873 142.581L270.434 142.875L273.212 146.564L273.651 146.271L276.429 149.961L275.99 150.254L278.767 153.944L279.207 153.65L281.983 157.34L281.984 157.34L281.544 157.633L284.322 161.323L284.761 161.03Z" stroke="#3C3C43" stroke-opacity="0.6" stroke-width="0.974" stroke-dasharray="5.19 5.19"/>
<path d="M231.466 121.129L231.915 120.83L231.915 120.829L234.977 124.898L234.978 124.898L234.529 125.197L237.591 129.266L238.04 128.967L238.041 128.966L241.104 133.034L241.104 133.035L240.655 133.334L243.717 137.402L244.166 137.104L244.167 137.103L247.229 141.171L247.229 141.172L246.78 141.471L249.843 145.539L250.292 145.24L250.292 145.239L253.355 149.308L253.355 149.309L252.905 149.608L255.968 153.676L256.417 153.377L256.417 153.376L259.48 157.445L259.48 157.446L259.031 157.745L262.093 161.813L262.543 161.514L262.544 161.513L265.606 165.582L265.605 165.583L265.156 165.882L266.49 167.653L264.804 169.598L265.2 169.848L261.327 174.312L260.931 174.061L257.058 178.525L257.455 178.774L253.582 183.238L253.185 182.988L249.312 187.452L249.709 187.702L245.836 192.164L245.438 191.915L241.567 196.378L241.962 196.628L238.09 201.092L237.693 200.841L233.821 205.305L234.217 205.554L230.344 210.018L229.947 209.768L226.074 214.232L226.471 214.481L222.598 218.944L222.202 218.695L220.514 220.639L218.138 220.068L217.934 220.522L212.478 219.212L212.681 218.758L207.225 217.448L207.021 217.902L201.565 216.592L201.769 216.138L196.312 214.829L196.109 215.282L190.653 213.972L190.856 213.519L185.4 212.209L185.196 212.662L179.74 211.352L179.944 210.899L174.487 209.589L174.284 210.042L168.826 208.732L169.03 208.279L163.574 206.969L163.37 207.422L157.914 206.112L158.118 205.659L155.742 205.088L155.959 202.792L155.437 202.821L155.436 202.821L155.936 197.548L156.459 197.519L156.96 192.245L156.438 192.274L156.938 187.002L156.939 187.002L157.461 186.972L157.962 181.699L157.439 181.729L157.94 176.456L158.463 176.426L158.963 171.154L158.44 171.183L158.941 165.91L159.464 165.881L159.965 160.608L159.442 160.636L159.942 155.364L160.465 155.335L160.966 150.062L160.443 150.091L160.943 144.819L161.467 144.789L161.685 142.491L164.196 141.643L164.077 141.208L164.076 141.207L169.843 139.258L169.843 139.259L169.962 139.694L175.728 137.746L175.608 137.31L175.608 137.309L181.375 135.361L181.494 135.796L187.26 133.848L187.141 133.412L187.14 133.411L192.906 131.463L193.026 131.898L198.791 129.95L198.672 129.515L204.437 127.565L204.438 127.566L204.557 128L210.323 126.052L210.203 125.617L215.969 123.667L215.969 123.668L216.088 124.103L221.855 122.154L221.736 121.719L227.5 119.77L227.621 120.206L230.131 119.356L231.466 121.129Z" stroke="#3C3C43" stroke-opacity="0.6" stroke-width="0.994444" stroke-dasharray="5.18 5.18"/>
<path d="M243.8 162.547L246.97 166.757L246.54 167.044L247.935 168.898L246.17 170.932L246.551 171.173L242.543 175.79L242.163 175.552L238.154 180.17L238.534 180.41L234.526 185.029L234.147 184.79L230.138 189.409L230.518 189.648L226.51 194.268L226.13 194.028L222.122 198.648L222.502 198.887L218.494 203.505L218.114 203.267L216.349 205.301L213.862 204.704L213.667 205.138L208.02 203.783L208.215 203.348L202.569 201.992L202.373 202.427L196.726 201.071L196.922 200.637L191.274 199.281L191.079 199.716L185.432 198.36L185.627 197.925L179.981 196.57L179.786 197.004L174.139 195.649L174.334 195.214L171.847 194.617L172.075 192.214L171.575 192.241L172.092 186.785L172.593 186.757L173.112 181.3L172.61 181.328L173.129 175.87L173.63 175.843L174.148 170.386L173.647 170.413L174.166 164.956L174.667 164.928L175.184 159.472L174.684 159.499L175.201 154.042L175.703 154.015L175.931 151.611L178.559 150.723L178.444 150.306L184.411 148.289L184.526 148.706L190.493 146.689L190.378 146.272L190.378 146.271L196.346 144.255L196.46 144.672L202.427 142.656L202.313 142.238L202.312 142.237L208.28 140.221L208.394 140.638L214.361 138.622L214.247 138.204L214.246 138.203L220.213 136.187L220.214 136.188L220.329 136.604L222.956 135.716L224.352 137.57L224.781 137.284L227.951 141.494L227.522 141.781L230.691 145.991L231.121 145.705L234.291 149.916L234.292 149.916L233.861 150.202L237.031 154.412L237.46 154.126L240.631 158.336L240.631 158.337L240.201 158.623L243.37 162.834L243.8 162.547Z" stroke="#3C3C43" stroke-opacity="0.6" stroke-width="0.952932" stroke-dasharray="5.23 5.23"/>
<path d="M217.962 152.443L218.366 152.174L220.827 155.445L220.828 155.445L220.424 155.714L222.886 158.983L223.289 158.714L225.752 161.984L225.751 161.984L225.347 162.254L227.809 165.523L228.213 165.255L228.214 165.254L230.675 168.523L230.675 168.524L230.271 168.793L231.324 170.192L229.992 171.728L230.349 171.952L227.236 175.54L226.88 175.315L223.766 178.902L224.123 179.128L221.01 182.714L220.653 182.49L217.541 186.077L217.897 186.302L214.785 189.889L214.428 189.664L213.096 191.199L211.219 190.749L211.036 191.157L206.651 190.104L206.834 189.696L202.449 188.643L202.266 189.051L197.88 187.998L198.063 187.59L193.678 186.538L193.495 186.946L189.109 185.893L189.293 185.485L187.415 185.034L187.588 183.22L187.117 183.247L187.519 179.009L187.991 178.982L188.392 174.745L187.923 174.771L187.922 174.771L188.324 170.533L188.795 170.506L189.198 166.268L188.727 166.294L189.13 162.057L189.6 162.03L189.771 160.216L191.755 159.547L191.648 159.155L191.648 159.154L196.281 157.588L196.282 157.589L196.389 157.98L201.024 156.414L200.916 156.022L205.55 154.454L205.551 154.455L205.658 154.847L210.292 153.281L210.185 152.889L210.184 152.888L214.819 151.323L214.927 151.715L216.909 151.044L217.962 152.443Z" stroke="#3C3C43" stroke-opacity="0.6" stroke-width="0.894979" stroke-dasharray="5.12 5.12"/>
<circle cx="1.12" cy="1.12" r="1.12" transform="matrix(0.97237 0.233445 -0.409764 0.912192 205.128 169.646)" fill="#3C3C43" fill-opacity="0.6"/>
<path d="M247.91 62.1675L242.433 74.3589L241.281 74.0823L246.758 61.8908L247.91 62.1675ZM240.587 61.4553C242.506 61.9312 243.154 63.9058 241.992 66.4919C240.831 69.0779 238.707 70.3872 236.782 69.925C234.842 69.4593 234.209 67.4882 235.37 64.9021C236.532 62.316 238.641 61.0033 240.587 61.4553ZM240.156 62.4131C238.852 62.1151 237.37 63.1842 236.479 65.1682C235.588 67.1523 235.914 68.6556 237.212 68.9672C238.51 69.2788 239.993 68.2098 240.884 66.2257C241.775 64.2417 241.448 62.7384 240.156 62.4131ZM255.656 66.3616L255.263 67.2373L248.758 65.6756L249.151 64.7999L251.849 65.4477L252.63 63.71L253.768 63.9831L252.987 65.7208L255.656 66.3616ZM251.641 67.2774C253.275 67.6696 253.926 69.0991 253.215 70.7172C252.469 72.342 250.78 73.2249 249.146 72.8327C247.527 72.444 246.883 71.0008 247.614 69.3726C248.339 67.758 250.022 66.8888 251.641 67.2774ZM251.236 68.1805C250.209 67.9491 249.114 68.5504 248.635 69.6177C248.149 70.6986 248.543 71.6571 249.57 71.8886C250.6 72.1509 251.708 71.553 252.194 70.4721C252.673 69.4048 252.265 68.4428 251.236 68.1805ZM261.168 65.3505L255.704 77.5146L254.61 77.252L257.37 71.1083L255.649 70.6951L253.159 76.2367L252.08 75.9776L257.138 64.7166L258.218 64.9757L256.048 69.8058L257.769 70.219L260.074 65.0879L261.168 65.3505ZM270.944 74.0187L270.551 74.8944L266.54 73.9314L265.126 77.0785L270.538 78.3776L270.132 79.2807L258.259 76.4303L258.665 75.5272L264.003 76.8089L265.417 73.6618L261.595 72.7444L264.103 67.1617L272.927 69.2803L272.534 70.156L264.862 68.3141L263.141 72.1453L270.944 74.0187Z" fill="#3C3C43" fill-opacity="0.8"/>
<path d="M329.688 162.66L326.405 169.967L325.253 169.69L325.991 168.048L322.548 167.222L322.948 166.332L326.39 167.159L327.128 165.517L323.817 164.722C322.085 166.474 319.443 167.408 316.324 167.516L316.224 166.552C319.753 166.429 322.438 165.255 323.625 163.206L318.958 162.085L319.364 161.182L325.271 162.6C325.056 163.079 324.792 163.523 324.496 163.93L327.515 164.655L328.535 162.383L329.688 162.66ZM322.106 169.071C324.731 169.701 326.03 170.983 325.378 172.433C324.72 173.897 322.635 174.367 320.01 173.737C317.355 173.099 316.071 171.821 316.729 170.357C317.38 168.907 319.451 168.434 322.106 169.071ZM321.718 169.933C319.77 169.45 318.264 169.71 317.852 170.627C317.44 171.543 318.449 172.392 320.403 172.861C322.328 173.323 323.814 173.074 324.24 172.16C324.638 171.24 323.65 170.381 321.718 169.933ZM342.602 165.745L339.289 173.12L338.137 172.844L339.384 170.066L337.182 169.537L337.582 168.648L339.784 169.177L341.45 165.469L342.602 165.745ZM338.994 173.777L337.211 177.745L328.737 175.711L330.52 171.743L338.994 173.777ZM331.27 172.878L330.268 175.108L336.482 176.6L337.484 174.37L331.27 172.878ZM338.859 166.272L338.466 167.147L330.896 165.33L331.289 164.454L334.513 165.228L335.14 163.832L336.263 164.102L335.636 165.498L338.859 166.272ZM334.391 166.866C336.156 167.29 336.996 168.477 336.439 169.753C335.834 171.063 334.207 171.627 332.442 171.204C330.677 170.78 329.825 169.62 330.415 168.307C330.987 167.034 332.626 166.443 334.391 166.866ZM334.016 167.701C332.893 167.431 331.859 167.79 331.509 168.569C331.146 169.377 331.694 170.1 332.811 170.383C333.94 170.639 334.968 170.294 335.33 169.487C335.681 168.707 335.139 167.971 334.016 167.701Z" fill="#3C3C43" fill-opacity="0.8"/>
<path d="M221.219 266.846L220.826 267.722L216.83 266.763L216.031 268.541L221.383 269.827L220.984 270.716L209.155 267.876L209.555 266.987L214.907 268.272L215.706 266.493L211.973 265.597L213.829 261.464L214.952 261.734L213.489 264.991L221.219 266.846ZM218.052 274.15L217.646 275.053L208.588 272.879L210.223 269.239L211.361 269.512L210.132 272.249L218.052 274.15ZM234.388 272.782L233.989 273.671L228.709 272.404L227.59 274.894L226.453 274.621L227.571 272.131L222.116 270.821L222.516 269.932L234.388 272.782ZM235.369 266.787L233.469 271.015L224.689 268.907L226.588 264.679L235.369 266.787ZM227.33 265.797L226.199 268.315L232.719 269.88L233.85 267.362L227.33 265.797ZM230.916 277.239L230.51 278.142L221.482 275.974L223.055 272.471L224.208 272.748L223.04 275.348L230.916 277.239ZM252.177 270.701L250.757 273.862L242.939 271.985L242.232 273.559L250.327 275.502L249.927 276.391L240.68 274.171L242.168 270.86L249.971 272.733L250.616 271.297L242.784 269.416L243.177 268.541L252.177 270.701ZM250.517 277.958L250.129 278.82L244.733 277.524L242.969 281.451L241.831 281.178L243.595 277.251L238.257 275.969L238.644 275.107L250.517 277.958ZM265.592 273.391L261.529 282.436L260.391 282.163L264.454 273.118L265.592 273.391ZM261.064 284.477L260.659 285.38L251.878 283.272L253.519 279.618L254.657 279.892L253.422 282.642L261.064 284.477ZM261.434 273.439L261.034 274.328L255.973 273.113L255.211 274.81L259.907 275.938L259.526 276.786L254.83 275.658L254.037 277.423C256.801 278.087 258.354 278.407 260.316 278.552L260.046 279.442C258.008 279.302 256.394 278.975 253.535 278.288L252.485 278.036L255.22 271.947L261.434 273.439Z" fill="#3C3C43" fill-opacity="0.8"/>
<path d="M90.4737 242.127L90.0619 243.044L78.1893 240.193L78.6011 239.277L83.9248 240.555L85.1849 237.75L80.9405 236.731L81.3277 235.869L83.3551 236.355L85.1498 232.36L83.0933 231.866L83.4928 230.977L93.1776 233.302L92.7781 234.191L90.7215 233.698L88.9268 237.693L90.9541 238.18L90.5669 239.042L86.3079 238.019L85.0479 240.824L90.4737 242.127ZM84.4927 236.629L87.8037 237.423L89.5984 233.428L86.2875 232.633L84.4927 236.629ZM103.431 241.736L103.037 242.612L94.0673 240.458L96.9438 234.055L105.768 236.173L105.362 237.076L97.705 235.238L96.8936 237.044L104.274 238.816L103.887 239.678L96.5064 237.906L95.6275 239.863L103.431 241.736ZM103.407 245.171L103.007 246.061L91.1344 243.21L91.5339 242.321L103.407 245.171ZM119.337 238.627L118.963 239.462L116.964 238.982L115.895 241.363L117.849 241.832L117.481 242.653L113.294 241.648L112.76 242.839L118.113 244.124L117.725 244.986L105.911 242.15L106.298 241.288L111.622 242.566L112.157 241.375L107.985 240.374L108.354 239.553L110.309 240.022L111.378 237.641L109.38 237.161L109.755 236.327L119.337 238.627ZM115.772 245.593L114.598 248.207L106.897 246.358L106.356 247.562L114.451 249.505L114.082 250.326L104.85 248.11L106.11 245.305L113.825 247.157L114.293 246.117L106.548 244.258L106.904 243.464L115.772 245.593ZM111.446 240.295L114.757 241.09L115.827 238.709L112.516 237.914L111.446 240.295ZM132.408 241.402L126.931 253.593L125.794 253.32L131.27 241.128L132.408 241.402ZM127.96 241.592L126.017 245.916L121.175 244.753L119.884 247.626C122.035 248.143 123.993 248.514 126.469 248.722L126.18 249.653C123.628 249.435 121.623 249.044 119.391 248.508L118.312 248.249L120.401 243.597L125.258 244.763L126.408 242.205L121.522 241.031L121.921 240.142L127.96 241.592ZM140.161 244.142C142.911 244.818 144.33 246.553 143.469 248.468C142.655 250.281 140.393 251.072 137.863 250.624L136.714 253.183L142.125 254.482L141.719 255.385L129.847 252.535L130.252 251.631L135.591 252.913L136.74 250.354C134.35 249.614 133.177 247.998 133.988 246.192C134.849 244.277 137.398 243.494 140.161 244.142ZM139.761 245.031C137.661 244.527 135.712 245.09 135.097 246.458C134.464 247.868 135.59 249.138 137.684 249.656C139.79 250.147 141.727 249.611 142.361 248.202C142.975 246.834 141.862 245.536 139.761 245.031Z" fill="#3C3C43" fill-opacity="0.8"/>
<path d="M104.113 110.611C103.318 112.346 103.942 114.193 105.583 115.254L104.566 115.935C103.364 115.085 102.683 113.83 102.707 112.411C101.491 113.733 99.7919 114.584 97.9823 114.763L97.7485 113.737C100.042 113.56 102.094 112.264 102.957 110.379L103.523 109.12L104.66 109.394L104.113 110.611ZM111.26 110.205L108.021 117.416L106.869 117.139L108.534 113.431L105.646 112.738L106.046 111.848L108.934 112.542L110.108 109.928L111.26 110.205ZM103.558 116.739C106.257 117.386 107.53 118.617 106.872 120.081C106.221 121.531 104.204 121.956 101.505 121.309C98.8072 120.661 97.5278 119.444 98.1793 117.994C98.837 116.53 100.86 116.091 103.558 116.739ZM103.177 117.587C101.194 117.111 99.7081 117.36 99.317 118.267C98.909 119.139 99.9091 119.97 101.893 120.447C103.876 120.923 105.341 120.683 105.735 119.808C106.14 118.905 105.161 118.063 103.177 117.587ZM116.918 114.049C116.205 115.636 116.827 117.453 118.446 118.524L117.467 119.229C116.223 118.384 115.55 117.094 115.558 115.709C114.367 116.976 112.667 117.811 110.891 117.968L110.674 116.977C112.874 116.792 114.991 115.497 115.759 113.786L115.999 113.253L113.067 112.549L113.461 111.673L120.447 113.35L120.054 114.226L117.151 113.529L116.918 114.049ZM120.603 121.24L118.704 125.468L117.552 125.191L119.052 121.853L111.482 120.035L111.881 119.146L120.603 121.24ZM124.168 113.304L120.892 120.597L119.74 120.32L121.178 117.118L118.582 116.495L118.988 115.592L121.584 116.215L123.016 113.027L124.168 113.304Z" fill="#3C3C43" fill-opacity="0.8"/>
<path d="M146.343 133.221L230.351 120.405L267.119 169.008L217.351 204.597L173.166 193.989L146.343 133.221Z" fill="#3B82F6" fill-opacity="0.2" stroke="#3B82F6" stroke-width="1.6"/>
<circle cx="2.56" cy="2.56" r="2.56" transform="matrix(0.97237 0.233445 -0.409764 0.912192 265.99 166.148)" fill="#3B82F6"/>
<circle cx="2.56" cy="2.56" r="2.56" transform="matrix(0.97237 0.233445 -0.409764 0.912192 229.353 117.254)" fill="#3B82F6"/>
<circle cx="2.56" cy="2.56" r="2.56" transform="matrix(0.97237 0.233445 -0.409764 0.912192 144.771 130.58)" fill="#3B82F6"/>
<circle cx="2.56" cy="2.56" r="2.56" transform="matrix(0.97237 0.233445 -0.409764 0.912192 171.546 190.689)" fill="#3B82F6"/>
<circle cx="2.56" cy="2.56" r="2.56" transform="matrix(0.97237 0.233445 -0.409764 0.912192 215.73 201.297)" fill="#3B82F6"/>
</g>
<defs>
<filter id="filter0_d_855_4927" x="0" y="0" width="432.119" height="348.08" filterUnits="userSpaceOnUse" color-interpolation-filters="sRGB">
<feFlood flood-opacity="0" result="BackgroundImageFix"/>
<feColorMatrix in="SourceAlpha" type="matrix" values="0 0 0 0 0 0 0 0 0 0 0 0 0 0 0 0 0 0 127 0" result="hardAlpha"/>
<feOffset dx="8" dy="16"/>
<feGaussianBlur stdDeviation="2"/>
<feComposite in2="hardAlpha" operator="out"/>
<feColorMatrix type="matrix" values="0 0 0 0 0 0 0 0 0 0 0 0 0 0 0 0 0 0 0.25 0"/>
<feBlend mode="normal" in2="BackgroundImageFix" result="effect1_dropShadow_855_4927"/>
<feBlend mode="normal" in="SourceGraphic" in2="effect1_dropShadow_855_4927" result="shape"/>
</filter>
</defs>
</svg>
