<svg width="449" height="324" viewBox="0 0 449 324" fill="none" xmlns="http://www.w3.org/2000/svg">
<g filter="url(#filter0_d_713_3680)">
<g clip-path="url(#clip0_713_3680)">
<rect width="343" height="255" rx="18.6999" transform="matrix(0.975342 0.220697 -0.423567 0.905865 108.01 0)" fill="white"/>
<rect x="0.275888" y="0.563281" width="51" height="30" rx="15" transform="matrix(0.975342 0.220697 -0.423567 0.905865 118.574 21.0585)" stroke="#3C3C43"/>
<path d="M136.712 40.0645L136.203 41.1543L130.686 39.906L130.117 41.1233C132.564 41.8179 133.683 42.9397 133.064 44.2631C132.389 45.7068 130.244 46.1136 127.309 45.4339C124.331 44.7756 122.94 43.5688 123.615 42.1251C124.234 40.8017 126.087 40.3523 128.684 40.7991L129.253 39.5819L123.752 38.337L124.261 37.2471L136.712 40.0645ZM128.924 41.9803C126.836 41.5079 125.442 41.6777 125.078 42.4561C124.721 43.2205 125.698 43.9424 127.792 44.4006C129.843 44.8803 131.259 44.6998 131.616 43.9355C131.98 43.157 130.981 42.4458 128.924 41.9803ZM138.075 34.5191L137.572 35.5948L133.427 34.6568C133.06 35.9277 134.494 37.4025 136.88 38.1928L135.865 39.1371C133.622 38.3479 132.097 36.9776 131.99 35.4587C130.596 36.638 128.212 37.1237 125.731 36.844L125.724 35.6686C128.284 35.9973 130.698 35.3932 131.476 34.2154L127.377 33.2878L127.88 32.2121L138.075 34.5191ZM140.131 42.3405L139.389 43.9258L145.836 45.3845L146.577 43.7992L147.994 44.1199L145.519 49.4136L136.223 47.31L138.698 42.0164L140.131 42.3405ZM138.172 46.5302L144.618 47.9888L145.346 46.4319L138.9 44.9732L138.172 46.5302ZM151.149 37.446L150.699 38.4085C150.245 39.3781 149.736 40.468 148.667 41.9244L150.603 42.3623L150.093 43.4522L137.596 40.6245L138.106 39.5346L147.25 41.6037C148.252 40.2182 148.766 39.153 149.2 38.2259L141.291 36.4362L141.807 35.3322L151.149 37.446Z" fill="#3C3C43"/>
<path d="M412.318 88.5911C412.849 88.7112 413.222 89.0037 413.437 89.571C413.654 90.1431 413.616 90.7591 413.286 91.4648L403.251 112.925C402.813 113.861 402.171 114.419 401.309 114.73C400.853 114.894 400.497 114.931 400.209 114.894C399.959 114.861 399.703 114.765 399.446 114.569L399.336 114.48L394.292 110.047L393.951 109.748L393.423 109.85L385.597 111.37C385.141 111.457 384.803 111.435 384.54 111.347C384.275 111.259 384.019 111.083 383.789 110.764C383.355 110.162 383.306 109.449 383.744 108.511L393.778 87.0518C394.109 86.3442 394.6 85.8311 395.258 85.4586C395.831 85.1347 396.323 85.0291 396.793 85.0877L396.993 85.1233L412.318 88.5911Z" stroke="url(#paint0_linear_713_3680)" stroke-width="2"/>
<path d="M96.2322 70.1599L96.5484 69.4567L100.662 67.3355C102.097 66.5919 102.809 66.1777 103.141 65.4665C103.509 64.6809 103.032 63.9978 102.106 63.7883C101.123 63.5659 100.221 64.0075 99.8192 64.8674L98.8476 64.6476C99.4716 63.2862 101.03 62.6293 102.527 62.9681C104.025 63.3069 104.662 64.4842 104.101 65.6837C103.699 66.5436 102.952 67.1141 100.834 68.1843L98.0878 69.5703L98.0581 69.634L102.001 70.5262L101.604 71.3755L96.2322 70.1599ZM105.761 72.4334C103.921 72.017 103.539 70.3459 104.716 67.83C105.882 65.3354 107.636 64.1242 109.454 64.5354C111.271 64.9466 111.665 66.644 110.499 69.1387C109.323 71.6546 107.59 72.8472 105.761 72.4334ZM106.158 71.5841C107.347 71.8531 108.565 70.8962 109.493 68.9111C110.421 66.926 110.255 65.6324 109.067 65.3634C107.878 65.0944 106.638 66.0699 105.71 68.0551C104.782 70.0402 104.958 71.3126 106.158 71.5841ZM110.074 73.2919L110.39 72.5887L114.504 70.4675C115.938 69.7239 116.65 69.3097 116.983 68.5985C117.35 67.8129 116.873 67.1298 115.947 66.9203C114.964 66.6979 114.063 67.1395 113.661 67.9994L112.689 67.7796C113.313 66.4182 114.871 65.7613 116.369 66.1001C117.866 66.4389 118.504 67.6162 117.943 68.8157C117.541 69.6756 116.794 70.2461 114.675 71.3163L111.929 72.7023L111.9 72.766L115.843 73.6582L115.446 74.5075L110.074 73.2919ZM119.591 75.5628C118.094 75.224 117.364 74.1081 117.858 72.9168L118.852 73.1418C118.61 73.85 119.091 74.5224 119.983 74.7242C121.057 74.9673 122.177 74.4107 122.629 73.4447C123.095 72.4468 122.626 71.5307 121.523 71.2692C120.83 71.1008 120.199 71.181 119.657 71.6101L118.663 71.3851L121.211 67.3132L125.692 68.327L125.294 69.1763L121.671 68.3564L120.31 70.5371L120.39 70.5552C120.88 70.3726 121.525 70.3188 122.108 70.4507C123.685 70.8076 124.344 72.1542 123.645 73.651C122.95 75.1372 121.237 75.9352 119.591 75.5628Z" fill="#3C3C43"/>
<path d="M86.3182 92.1908L91.1098 81.9432L92.7862 82.3225L88.6233 91.2255L93.6067 92.3531L92.9779 93.6978L86.3182 92.1908ZM98.0562 95.019C95.6178 94.4673 94.8523 92.5724 95.9708 90.1803C97.076 87.8166 99.3611 86.5337 101.662 87.0544C103.552 87.482 104.825 88.9753 103.528 91.7495L103.277 92.2874L97.3943 90.9563C96.7583 92.4245 97.2899 93.4683 98.6538 93.7769C99.5834 93.9872 100.35 93.7537 100.843 93.3487L102.488 93.7211C101.54 94.8839 99.8697 95.4294 98.0562 95.019ZM97.939 89.8274L102.206 90.793C102.755 89.6182 102.345 88.5862 101.095 88.3034C99.7922 88.0086 98.5095 88.7514 97.939 89.8274ZM113.747 89.8984L107.151 96.9048L105.398 96.5082L105.99 88.1432L107.742 88.5397L107.07 94.9144L107.147 94.9317L111.994 89.5018L113.747 89.8984ZM114.683 98.7812C112.244 98.2295 111.479 96.3346 112.597 93.9425C113.703 91.5788 115.988 90.2959 118.289 90.8166C120.179 91.2442 121.452 92.7375 120.155 95.5117L119.903 96.0496L114.021 94.7185C113.385 96.1867 113.916 97.2305 115.28 97.5391C116.21 97.7495 116.976 97.5159 117.469 97.1109L119.115 97.4833C118.167 98.6461 116.496 99.1916 114.683 98.7812ZM114.566 93.5896L118.833 94.5552C119.382 93.3804 118.971 92.3484 117.722 92.0656C116.419 91.7708 115.136 92.5136 114.566 93.5896ZM119.937 99.798L123.531 92.1123L125.1 92.4675L124.531 93.6847L124.623 93.7054C125.311 92.9534 126.373 92.6301 127.348 92.8508C127.546 92.8956 127.859 92.9822 128.02 93.0343L127.345 94.478C127.221 94.4187 126.867 94.2758 126.532 94.2C125.404 93.9448 124.228 94.477 123.758 95.4819L121.568 100.167L119.937 99.798ZM126.146 98.8083C126.967 97.0532 128.779 96.9623 130.319 97.2012C130.884 97.29 132.156 97.5073 132.551 97.5811L132.82 96.969C133.224 96.1056 132.898 95.4685 131.786 95.2167C130.826 94.9995 130.055 95.2789 129.622 95.8071L128.007 95.4416C128.755 94.2022 130.465 93.5719 132.416 94.0133C133.727 94.3098 135.45 95.2007 134.411 97.4229L132.022 102.533L130.437 102.174L130.927 101.127L130.866 101.113C130.275 101.621 129.215 102.085 127.843 101.775C126.274 101.42 125.445 100.309 126.146 98.8083ZM127.725 99.1811C127.381 99.9171 127.857 100.448 128.772 100.654C130.097 100.954 131.274 100.313 131.704 99.3928L132.035 98.6851L130.025 98.3711C128.925 98.2005 128.082 98.4168 127.725 99.1811ZM136.04 106.807C133.952 106.334 132.984 105.161 133.5 103.697L135.161 104.072C134.976 104.829 135.542 105.348 136.624 105.593C137.92 105.886 138.981 105.563 139.543 104.36L140.251 102.845L140.145 102.821C139.624 103.251 138.659 103.909 137.135 103.564C135.184 103.123 134.311 101.423 135.456 98.9739C136.6 96.5253 138.741 95.4444 140.737 95.8961C142.276 96.2444 142.436 97.2354 142.516 97.7856L142.623 97.8097L143.205 96.5642L144.79 96.9228L141.117 104.778C140.197 106.746 138.173 107.29 136.04 106.807ZM138.083 102.401C139.47 102.715 140.69 101.943 141.432 100.357C142.16 98.8005 141.887 97.5807 140.485 97.2634C139.037 96.9358 137.792 97.9061 137.103 99.3781C136.402 100.878 136.666 102.081 138.083 102.401ZM143.178 105.057L146.771 97.3711L148.402 97.7401L144.808 105.426L143.178 105.057ZM148.15 96.3683C147.586 96.2408 147.299 95.7375 147.531 95.2421C147.762 94.7468 148.42 94.4573 148.984 94.5849C149.533 94.7091 149.82 95.2123 149.588 95.7077C149.357 96.2031 148.699 96.4925 148.15 96.3683ZM150.551 101.685L148.42 106.243L146.789 105.874L150.383 98.1884L151.953 98.5435L151.364 99.8033L151.455 99.8239C152.235 99.0927 153.294 98.7376 154.529 99.0169C156.236 99.4031 156.885 100.646 155.992 102.556L153.708 107.44L152.093 107.074L154.29 102.375C154.813 101.257 154.469 100.443 153.371 100.195C152.259 99.9432 151.127 100.454 150.551 101.685ZM157.741 111.717C155.653 111.245 154.685 110.071 155.201 108.607L156.863 108.983C156.677 109.739 157.244 110.259 158.326 110.503C159.621 110.797 160.682 110.473 161.245 109.27L161.953 107.756L161.846 107.732C161.325 108.161 160.36 108.82 158.836 108.475C156.885 108.033 156.012 106.333 157.157 103.884C158.302 101.436 160.442 100.355 162.438 100.807C163.978 101.155 164.138 102.146 164.217 102.696L164.324 102.72L164.907 101.475L166.491 101.833L162.818 109.689C161.898 111.656 159.875 112.2 157.741 111.717ZM159.784 107.312C161.171 107.626 162.392 106.853 163.133 105.268C163.861 103.711 163.589 102.491 162.187 102.174C160.739 101.846 159.493 102.817 158.805 104.289C158.103 105.789 158.367 106.991 159.784 107.312ZM168.826 110.86L173.618 100.613L177.549 101.503C180.11 102.082 180.753 103.699 179.872 105.581C179.227 106.961 178.067 107.857 176.511 108.013L177.01 112.712L175.105 112.281L174.671 107.91L174.565 107.886L172.309 107.376L170.502 111.24L168.826 110.86ZM172.938 106.031L175.026 106.503C176.656 106.872 177.638 106.359 178.181 105.198C178.723 104.038 178.39 103.164 176.76 102.795L174.672 102.323L172.938 106.031ZM181.692 113.944C179.253 113.392 178.488 111.497 179.606 109.105C180.712 106.741 182.997 105.458 185.298 105.979C187.188 106.407 188.461 107.9 187.164 110.674L186.912 111.212L181.03 109.881C180.394 111.349 180.925 112.393 182.289 112.702C183.219 112.912 183.985 112.679 184.478 112.274L186.124 112.646C185.176 113.809 183.505 114.354 181.692 113.944ZM181.575 108.752L185.842 109.718C186.391 108.543 185.98 107.511 184.731 107.228C183.428 106.933 182.145 107.676 181.575 108.752ZM190.378 115.909C187.971 115.365 187.282 113.377 188.361 111.07C189.459 108.721 191.729 107.434 194.061 107.962C195.95 108.39 196.839 109.733 196.279 111.328L194.694 110.969C194.864 110.21 194.523 109.46 193.502 109.229C192.161 108.925 190.779 109.755 190.011 111.397C189.224 113.081 189.624 114.314 190.981 114.621C191.895 114.828 192.814 114.52 193.403 113.73L194.988 114.088C194.11 115.533 192.329 116.351 190.378 115.909ZM198.882 117.834C196.444 117.282 195.678 115.387 196.797 112.995C197.902 110.631 200.187 109.348 202.488 109.869C204.378 110.297 205.651 111.79 204.354 114.564L204.103 115.102L198.22 113.771C197.584 115.239 198.116 116.283 199.48 116.591C200.409 116.802 201.176 116.568 201.669 116.163L203.314 116.536C202.366 117.699 200.696 118.244 198.882 117.834ZM198.765 112.642L203.032 113.608C203.581 112.433 203.171 111.401 201.921 111.118C200.618 110.823 199.336 111.566 198.765 112.642ZM207.898 114.662L205.767 119.219L204.136 118.85L207.73 111.165L209.3 111.52L208.711 112.78L208.802 112.8C209.582 112.069 210.642 111.714 211.876 111.993C213.583 112.379 214.232 113.622 213.339 115.533L211.055 120.416L209.44 120.05L211.637 115.351C212.16 114.233 211.816 113.42 210.718 113.171C209.606 112.92 208.474 113.43 207.898 114.662ZM220.501 114.054L219.939 115.258L218.247 114.875L216.275 119.093C215.871 119.956 216.271 120.219 216.782 120.35C217.011 120.402 217.39 120.456 217.625 120.494L217.009 121.81C216.768 121.787 216.404 121.736 215.962 121.636C214.682 121.346 213.843 120.436 214.514 119.039L216.631 114.509L215.412 114.233L215.975 113.03L217.194 113.306L218.054 111.466L219.67 111.832L218.809 113.672L220.501 114.054ZM223.384 123.206L221.601 122.802L230.355 113.451L232.291 113.889L231.477 125.037L229.693 124.633L229.952 121.702L225.654 120.73L223.384 123.206ZM226.751 119.538L230.073 120.29L230.487 115.547L230.411 115.53L226.751 119.538ZM235.625 126.148C233.629 125.696 232.867 123.865 234.025 121.388C235.197 118.882 237.357 117.759 239.353 118.211C240.892 118.559 241.053 119.55 241.117 120.097L241.193 120.114L242.974 116.306L244.604 116.675L239.813 126.923L238.228 126.564L238.79 125.361L238.668 125.334C238.125 125.774 237.134 126.489 235.625 126.148ZM236.593 124.942C237.98 125.256 239.273 124.328 240.028 122.715C240.776 121.115 240.504 119.895 239.101 119.578C237.654 119.25 236.408 120.221 235.7 121.735C234.978 123.278 235.176 124.622 236.593 124.942ZM252.626 121.324L246.03 128.33L244.278 127.933L244.869 119.568L246.622 119.965L245.95 126.34L246.026 126.357L250.874 120.927L252.626 121.324ZM250.731 126.999C251.552 125.244 253.364 125.153 254.904 125.392C255.469 125.481 256.741 125.698 257.136 125.772L257.405 125.16C257.809 124.296 257.483 123.659 256.371 123.407C255.411 123.19 254.64 123.47 254.207 123.998L252.592 123.632C253.34 122.393 255.05 121.763 257.001 122.204C258.311 122.5 260.035 123.391 258.996 125.614L256.607 130.723L255.022 130.365L255.512 129.317L255.451 129.303C254.859 129.811 253.8 130.276 252.428 129.965C250.858 129.61 250.03 128.499 250.731 126.999ZM252.309 127.372C251.965 128.108 252.442 128.638 253.356 128.845C254.682 129.145 255.858 128.503 256.289 127.583L256.62 126.876L254.609 126.562C253.509 126.391 252.667 126.607 252.309 127.372ZM262.334 126.979L260.203 131.537L258.573 131.168L262.166 123.482L263.736 123.838L263.147 125.097L263.239 125.118C264.019 124.387 265.078 124.032 266.312 124.311C268.019 124.697 268.668 125.94 267.775 127.85L265.492 132.734L263.876 132.368L266.073 127.669C266.596 126.551 266.252 125.737 265.155 125.489C264.042 125.237 262.91 125.748 262.334 126.979ZM270.905 134.131C268.497 133.586 267.809 131.599 268.887 129.292C269.986 126.942 272.256 125.656 274.587 126.183C276.477 126.611 277.366 127.955 276.805 129.549L275.22 129.191C275.39 128.431 275.05 127.681 274.029 127.45C272.688 127.147 271.306 127.976 270.538 129.618C269.75 131.303 270.151 132.536 271.507 132.843C272.422 133.05 273.341 132.741 273.93 131.951L275.515 132.31C274.637 133.754 272.856 134.572 270.905 134.131ZM279.409 136.055C276.971 135.503 276.205 133.608 277.324 131.216C278.429 128.853 280.714 127.57 283.015 128.09C284.905 128.518 286.178 130.011 284.881 132.785L284.63 133.323L278.747 131.992C278.111 133.46 278.643 134.504 280.007 134.813C280.936 135.023 281.703 134.79 282.195 134.385L283.841 134.757C282.893 135.92 281.222 136.465 279.409 136.055ZM279.292 130.863L283.559 131.829C284.108 130.654 283.698 129.622 282.448 129.339C281.145 129.045 279.862 129.787 279.292 130.863ZM291.925 132.533C292.058 131.889 291.725 131.376 290.826 131.172C289.896 130.962 289.014 131.263 288.758 131.847C288.531 132.297 288.775 132.712 289.596 133.117L290.775 133.696C292.153 134.353 292.567 135.198 292.072 136.291C291.409 137.675 289.696 138.383 287.577 137.903C285.596 137.455 284.791 136.365 285.262 134.891L286.923 135.267C286.736 135.991 287.156 136.462 288.131 136.683C289.183 136.921 290.039 136.676 290.358 136.028C290.575 135.529 290.331 135.114 289.548 134.734L288.372 134.186C287.024 133.536 286.591 132.625 287.087 131.563C287.729 130.19 289.446 129.546 291.366 129.98C293.21 130.397 293.943 131.533 293.495 132.888L291.925 132.533ZM296.428 139.734L300.022 132.048L301.653 132.417L298.059 140.103L296.428 139.734ZM301.401 131.045C300.837 130.918 300.55 130.415 300.781 129.919C301.013 129.424 301.671 129.134 302.235 129.262C302.783 129.386 303.07 129.889 302.839 130.385C302.607 130.88 301.949 131.17 301.401 131.045ZM303.802 136.362L301.671 140.92L300.04 140.551L303.634 132.865L305.203 133.221L304.614 134.48L304.706 134.501C305.486 133.77 306.545 133.415 307.78 133.694C309.486 134.08 310.136 135.323 309.242 137.234L306.959 142.117L305.343 141.751L307.541 137.052C308.064 135.934 307.719 135.12 306.622 134.872C305.51 134.62 304.378 135.131 303.802 136.362ZM316.468 144.269L312.887 143.458L317.679 133.211L321.367 134.045C324.613 134.78 325.663 137.146 324.174 140.331C322.679 143.529 319.821 145.027 316.468 144.269ZM315.199 142.479L317.012 142.889C319.512 143.455 321.381 142.375 322.513 139.955C323.638 137.549 323.033 135.925 320.625 135.38L318.72 134.949L315.199 142.479ZM327.018 146.828C324.579 146.276 323.814 144.381 324.932 141.989C326.038 139.625 328.323 138.342 330.624 138.863C332.514 139.291 333.787 140.784 332.49 143.558L332.238 144.096L326.356 142.765C325.72 144.233 326.251 145.277 327.615 145.586C328.545 145.796 329.311 145.562 329.804 145.157L331.45 145.53C330.502 146.693 328.831 147.238 327.018 146.828ZM326.901 141.636L331.168 142.602C331.717 141.427 331.306 140.395 330.057 140.112C328.754 139.817 327.471 140.56 326.901 141.636ZM335.765 148.807C333.327 148.255 332.562 146.36 333.68 143.968C334.785 141.605 337.07 140.322 339.372 140.843C341.261 141.27 342.535 142.763 341.238 145.538L340.986 146.076L335.103 144.744C334.468 146.213 334.999 147.256 336.363 147.565C337.293 147.775 338.059 147.542 338.552 147.137L340.198 147.509C339.25 148.672 337.579 149.217 335.765 148.807ZM335.648 143.616L339.915 144.581C340.465 143.406 340.054 142.374 338.804 142.092C337.501 141.797 336.219 142.539 335.648 143.616ZM339.67 152.711L344.613 142.138L346.198 142.497L345.616 143.742L345.753 143.773C346.268 143.358 347.235 142.622 348.759 142.967C350.756 143.418 351.552 145.211 350.381 147.716C349.223 150.193 347.073 151.366 345.062 150.911C343.553 150.569 343.356 149.586 343.304 149.01L343.213 148.99L341.3 153.08L339.67 152.711ZM344.42 146.336C343.666 147.95 343.911 149.226 345.298 149.54C346.731 149.864 348.027 148.858 348.748 147.315C349.456 145.801 349.254 144.503 347.806 144.175C346.404 143.858 345.168 144.737 344.42 146.336ZM78.2704 109.402L83.062 99.1546L84.7384 99.534L80.5755 108.437L85.5589 109.565L84.9302 110.909L78.2704 109.402ZM90.0084 112.23C87.57 111.679 86.8045 109.784 87.923 107.392C89.0283 105.028 91.3133 103.745 93.6145 104.266C95.5043 104.693 96.7777 106.187 95.4805 108.961L95.229 109.499L89.3465 108.168C88.7105 109.636 89.2421 110.68 90.606 110.988C91.5357 111.199 92.3021 110.965 92.7948 110.56L94.4407 110.933C93.4925 112.095 91.8219 112.641 90.0084 112.23ZM89.8912 107.039L94.1583 108.004C94.7076 106.83 94.297 105.798 93.0474 105.515C91.7444 105.22 90.4618 105.963 89.8912 107.039ZM95.8943 110.995C96.715 109.24 98.5269 109.149 100.067 109.388C100.632 109.477 101.904 109.694 102.299 109.768L102.568 109.156C102.972 108.293 102.646 107.656 101.534 107.404C100.574 107.187 99.8028 107.466 99.3704 107.994L97.755 107.629C98.503 106.389 100.213 105.759 102.164 106.2C103.475 106.497 105.198 107.388 104.159 109.61L101.77 114.72L100.185 114.361L100.675 113.314L100.614 113.3C100.023 113.808 98.9627 114.272 97.5912 113.962C96.0215 113.607 95.1928 112.496 95.8943 110.995ZM97.4726 111.368C97.1285 112.104 97.6051 112.635 98.5195 112.842C99.8453 113.142 101.022 112.5 101.452 111.58L101.783 110.872L99.7725 110.558C98.6726 110.388 97.83 110.604 97.4726 111.368ZM103.736 115.165L107.33 107.479L108.899 107.834L108.33 109.051L108.422 109.072C109.11 108.32 110.171 107.997 111.147 108.217C111.345 108.262 111.658 108.349 111.819 108.401L111.144 109.845C111.02 109.785 110.666 109.642 110.331 109.567C109.203 109.311 108.027 109.844 107.557 110.848L105.367 115.533L103.736 115.165ZM113.167 112.259L111.036 116.816L109.405 116.447L112.999 108.762L114.569 109.117L113.98 110.377L114.071 110.397C114.851 109.666 115.91 109.311 117.145 109.59C118.852 109.976 119.501 111.219 118.607 113.13L116.324 118.013L114.709 117.647L116.906 112.948C117.429 111.83 117.084 111.016 115.987 110.768C114.875 110.516 113.743 111.027 113.167 112.259ZM118.305 118.461L121.899 110.775L123.53 111.144L119.936 118.83L118.305 118.461ZM123.278 109.773C122.714 109.645 122.427 109.142 122.658 108.647C122.89 108.151 123.548 107.862 124.112 107.989C124.66 108.113 124.947 108.617 124.716 109.112C124.484 109.607 123.826 109.897 123.278 109.773ZM125.679 115.09L123.548 119.647L121.917 119.278L125.511 111.593L127.08 111.948L126.491 113.208L126.583 113.228C127.363 112.497 128.422 112.142 129.656 112.421C131.363 112.808 132.013 114.05 131.119 115.961L128.836 120.844L127.22 120.478L129.418 115.779C129.94 114.661 129.596 113.848 128.499 113.599C127.386 113.348 126.254 113.858 125.679 115.09ZM132.869 125.122C130.781 124.649 129.813 123.475 130.329 122.011L131.99 122.387C131.805 123.144 132.371 123.663 133.453 123.908C134.748 124.201 135.81 123.878 136.372 122.675L137.08 121.16L136.974 121.136C136.453 121.566 135.488 122.224 133.964 121.879C132.013 121.438 131.14 119.738 132.284 117.289C133.429 114.84 135.569 113.759 137.566 114.211C139.105 114.559 139.265 115.55 139.345 116.101L139.452 116.125L140.034 114.879L141.619 115.238L137.946 123.093C137.026 125.061 135.002 125.604 132.869 125.122ZM134.912 120.716C136.299 121.03 137.519 120.258 138.26 118.672C138.988 117.115 138.716 115.896 137.314 115.578C135.866 115.251 134.621 116.221 133.932 117.693C133.231 119.193 133.494 120.396 134.912 120.716ZM151.357 117.441L150.795 118.644L149.012 118.241L145.98 124.723L144.35 124.354L147.381 117.872L146.101 117.582L146.663 116.379L147.944 116.669L148.36 115.777C149.002 114.404 150.311 113.839 151.835 114.184C152.232 114.274 152.608 114.406 152.901 114.535L152.312 115.795C152.028 115.683 151.806 115.618 151.653 115.583C150.784 115.386 150.236 115.622 149.885 116.373L149.574 117.038L151.357 117.441ZM152.339 126.334C149.992 125.803 149.209 123.873 150.321 121.495C151.44 119.103 153.705 117.863 156.052 118.394C158.383 118.922 159.166 120.852 158.048 123.244C156.936 125.622 154.671 126.862 152.339 126.334ZM152.928 125.075C154.421 125.413 155.713 124.343 156.402 122.871C157.09 121.399 156.963 119.977 155.469 119.639C153.945 119.295 152.64 120.392 151.952 121.864C151.263 123.336 151.404 124.73 152.928 125.075ZM157.867 127.413L161.461 119.728L163.031 120.083L162.462 121.3L162.553 121.321C163.242 120.569 164.303 120.245 165.278 120.466C165.476 120.511 165.79 120.597 165.951 120.65L165.276 122.093C165.152 122.034 164.797 121.891 164.462 121.815C163.334 121.56 162.159 122.092 161.689 123.097L159.498 127.782L157.867 127.413ZM168.429 129.803L166.646 129.399L175.399 120.048L177.335 120.486L176.521 131.634L174.738 131.231L174.996 128.3L170.699 127.327L168.429 129.803ZM171.795 126.135L175.117 126.887L175.532 122.144L175.456 122.127L171.795 126.135ZM184.539 129.911L186.637 125.424L188.253 125.79L184.659 133.476L183.074 133.117L183.696 131.786L183.605 131.766C182.84 132.5 181.702 132.916 180.467 132.637C178.867 132.275 178.203 131.029 179.096 129.118L181.379 124.235L183.01 124.604L180.813 129.303C180.323 130.35 180.698 131.171 181.688 131.395C182.588 131.598 183.924 131.227 184.539 129.911ZM189.661 134.78C187.665 134.328 186.903 132.496 188.061 130.019C189.233 127.514 191.393 126.391 193.389 126.842C194.928 127.191 195.088 128.182 195.153 128.729L195.229 128.746L197.009 124.938L198.64 125.307L193.848 135.555L192.264 135.196L192.826 133.993L192.704 133.966C192.161 134.406 191.17 135.121 189.661 134.78ZM190.629 133.574C192.016 133.888 193.309 132.96 194.064 131.346C194.812 129.747 194.539 128.527 193.137 128.21C191.689 127.882 190.444 128.852 189.736 130.367C189.014 131.91 189.212 133.254 190.629 133.574ZM195.967 136.034L199.56 128.349L201.191 128.717L197.597 136.403L195.967 136.034ZM200.939 127.346C200.375 127.218 200.088 126.715 200.32 126.22C200.552 125.724 201.209 125.435 201.773 125.562C202.322 125.687 202.609 126.19 202.377 126.685C202.146 127.181 201.488 127.47 200.939 127.346ZM203.011 137.8C200.664 137.269 199.881 135.339 200.993 132.961C202.112 130.569 204.377 129.329 206.724 129.86C209.055 130.387 209.838 132.318 208.72 134.71C207.608 137.087 205.343 138.328 203.011 137.8ZM203.6 136.541C205.093 136.879 206.386 135.809 207.074 134.337C207.762 132.865 207.635 131.443 206.141 131.105C204.617 130.761 203.312 131.858 202.624 133.33C201.936 134.802 202.076 136.196 203.6 136.541ZM215.746 135L215.137 136.303L210.245 135.196L210.854 133.893L215.746 135ZM220.661 130.29L219.827 139.32L219.948 139.348L226.91 131.704L228.723 132.114L219.954 141.462L218.019 141.024L218.848 129.88L220.661 130.29ZM225.197 142.648L228.79 134.963L230.421 135.332L226.827 143.017L225.197 142.648ZM230.169 133.96C229.605 133.832 229.318 133.329 229.55 132.834C229.781 132.338 230.439 132.049 231.003 132.176C231.552 132.301 231.839 132.804 231.607 133.299C231.376 133.795 230.718 134.084 230.169 133.96ZM236.071 138.926C236.203 138.283 235.87 137.77 234.971 137.566C234.041 137.356 233.159 137.657 232.903 138.241C232.676 138.69 232.92 139.106 233.742 139.511L234.92 140.09C236.298 140.746 236.712 141.591 236.218 142.685C235.554 144.068 233.841 144.776 231.723 144.297C229.741 143.849 228.937 142.759 229.407 141.284L231.068 141.66C230.881 142.385 231.301 142.856 232.277 143.076C233.328 143.314 234.184 143.07 234.504 142.422C234.72 141.923 234.476 141.508 233.693 141.127L232.517 140.58C231.169 139.93 230.736 139.018 231.232 137.957C231.874 136.584 233.591 135.939 235.512 136.374C237.356 136.791 238.088 137.927 237.64 139.282L236.071 138.926ZM243.517 143.256L245.615 138.77L247.23 139.135L243.637 146.821L242.052 146.462L242.674 145.132L242.582 145.111C241.818 145.846 240.68 146.261 239.445 145.982C237.845 145.62 237.18 144.374 238.074 142.463L240.357 137.58L241.988 137.949L239.791 142.648C239.301 143.695 239.676 144.516 240.666 144.74C241.565 144.943 242.901 144.573 243.517 143.256ZM246.249 145.017C247.07 143.262 248.882 143.171 250.422 143.41C250.987 143.499 252.259 143.716 252.654 143.79L252.923 143.178C253.327 142.315 253.002 141.677 251.889 141.426C250.929 141.208 250.158 141.488 249.725 142.016L248.11 141.651C248.858 140.411 250.568 139.781 252.519 140.222C253.83 140.519 255.553 141.41 254.514 143.632L252.125 148.742L250.54 148.383L251.03 147.336L250.969 147.322C250.378 147.83 249.318 148.294 247.946 147.984C246.377 147.629 245.548 146.518 246.249 145.017ZM247.828 145.39C247.484 146.126 247.96 146.657 248.875 146.863C250.2 147.163 251.377 146.522 251.807 145.602L252.138 144.894L250.128 144.58C249.028 144.409 248.185 144.626 247.828 145.39ZM260.513 139.308L255.722 149.555L254.091 149.186L258.883 138.939L260.513 139.308ZM261.65 150.897L266.442 140.649L273.36 142.215L272.732 143.559L267.489 142.373L266.04 145.473L270.917 146.576L270.294 147.907L265.418 146.803L263.955 149.931L269.259 151.132L268.63 152.476L261.65 150.897ZM270.489 152.897L274.083 145.211L275.652 145.566L275.063 146.826L275.155 146.847C275.909 146.063 276.948 145.75 278.046 145.998C279.143 146.247 279.682 146.932 279.635 147.861L279.727 147.881C280.513 147.136 281.642 146.812 282.846 147.085C284.34 147.423 284.996 148.541 284.175 150.297L281.766 155.449L280.136 155.08L282.479 150.069C282.962 149.036 282.466 148.438 281.612 148.245C280.561 148.007 279.656 148.538 279.225 149.458L276.935 154.356L275.32 153.99L277.703 148.895C278.093 148.059 277.726 147.366 276.842 147.166C275.928 146.959 274.82 147.491 274.337 148.524L272.12 153.266L270.489 152.897ZM287.165 156.842C284.818 156.311 284.035 154.381 285.147 152.003C286.265 149.611 288.531 148.371 290.878 148.902C293.209 149.429 293.992 151.36 292.873 153.752C291.762 156.13 289.496 157.37 287.165 156.842ZM287.754 155.583C289.247 155.921 290.539 154.851 291.228 153.379C291.916 151.907 291.789 150.485 290.295 150.147C288.771 149.803 287.466 150.9 286.778 152.372C286.089 153.844 286.23 155.238 287.754 155.583ZM300.158 151.111L299.595 152.314L297.904 151.932L295.932 156.15C295.528 157.013 295.927 157.276 296.439 157.407C296.668 157.459 297.047 157.513 297.282 157.551L296.666 158.867C296.424 158.844 296.061 158.793 295.619 158.693C294.339 158.403 293.5 157.493 294.17 156.096L296.288 151.566L295.069 151.29L295.632 150.087L296.851 150.363L297.711 148.523L299.327 148.889L298.466 150.729L300.158 151.111ZM298.149 159.156L301.743 151.47L303.373 151.839L299.78 159.525L298.149 159.156ZM303.122 150.467C302.558 150.34 302.271 149.836 302.502 149.341C302.734 148.846 303.392 148.556 303.956 148.684C304.504 148.808 304.791 149.311 304.56 149.807C304.328 150.302 303.67 150.591 303.122 150.467ZM305.193 160.922C302.846 160.391 302.064 158.461 303.175 156.083C304.294 153.691 306.559 152.45 308.906 152.981C311.238 153.509 312.021 155.439 310.902 157.831C309.79 160.209 307.525 161.449 305.193 160.922ZM305.782 159.662C307.276 160 308.568 158.931 309.256 157.459C309.944 155.987 309.817 154.565 308.324 154.227C306.8 153.882 305.494 154.98 304.806 156.452C304.118 157.924 304.258 159.317 305.782 159.662ZM314.484 157.812L312.353 162.37L310.722 162.001L314.316 154.315L315.885 154.67L315.296 155.93L315.388 155.951C316.168 155.219 317.227 154.864 318.461 155.143C320.168 155.53 320.817 156.772 319.924 158.683L317.641 163.566L316.025 163.201L318.223 158.502C318.745 157.383 318.401 156.57 317.304 156.322C316.191 156.07 315.059 156.581 314.484 157.812ZM70.2226 126.614L75.0142 116.366L78.9461 117.256C81.5064 117.835 82.1491 119.452 81.2689 121.334C80.6236 122.714 79.4633 123.61 77.9071 123.767L78.4064 128.465L76.5014 128.034L76.0679 123.663L75.9613 123.639L73.7058 123.129L71.899 126.993L70.2226 126.614ZM74.3345 121.784L76.4224 122.257C78.053 122.626 79.0346 122.112 79.5773 120.952C80.12 119.791 79.787 118.917 78.1563 118.548L76.0685 118.076L74.3345 121.784ZM83.0884 129.697C80.65 129.145 79.8845 127.25 81.003 124.858C82.1082 122.495 84.3933 121.212 86.6945 121.732C88.5842 122.16 89.8577 123.653 88.5605 126.428L88.309 126.965L82.4265 125.634C81.7905 127.103 82.322 128.146 83.686 128.455C84.6156 128.665 85.382 128.432 85.8748 128.027L87.5206 128.399C86.5725 129.562 84.9019 130.107 83.0884 129.697ZM82.9712 124.505L87.2383 125.471C87.7876 124.296 87.377 123.264 86.1273 122.981C84.8243 122.687 83.5417 123.429 82.9712 124.505ZM91.775 131.663C89.3671 131.118 88.6784 129.131 89.7572 126.824C90.8558 124.474 93.1257 123.188 95.4573 123.715C97.3471 124.143 98.2355 125.486 97.6751 127.081L96.0902 126.723C96.2601 125.963 95.9199 125.213 94.8988 124.982C93.5577 124.678 92.1754 125.508 91.4077 127.15C90.6201 128.834 91.0209 130.068 92.3773 130.375C93.2916 130.582 94.2111 130.273 94.7997 129.483L96.3846 129.841C95.5068 131.286 93.7257 132.104 91.775 131.663ZM100.218 133.573C97.8709 133.042 97.0882 131.112 98.2 128.734C99.3185 126.342 101.584 125.102 103.931 125.633C106.262 126.16 107.045 128.09 105.927 130.482C104.815 132.86 102.549 134.101 100.218 133.573ZM100.807 132.313C102.3 132.651 103.592 131.582 104.281 130.11C104.969 128.638 104.842 127.216 103.348 126.878C101.824 126.533 100.519 127.631 99.8307 129.103C99.1424 130.575 99.2829 131.968 100.807 132.313ZM107.798 138.481C105.71 138.009 104.742 136.835 105.258 135.371L106.92 135.747C106.734 136.503 107.301 137.023 108.383 137.267C109.678 137.561 110.739 137.237 111.302 136.034L112.01 134.52L111.903 134.495C111.382 134.925 110.417 135.584 108.893 135.239C106.942 134.797 106.069 133.097 107.214 130.648C108.359 128.2 110.499 127.119 112.495 127.571C114.035 127.919 114.195 128.91 114.274 129.46L114.381 129.484L114.964 128.239L116.549 128.597L112.875 136.453C111.955 138.42 109.932 138.964 107.798 138.481ZM109.841 134.076C111.228 134.39 112.449 133.617 113.19 132.032C113.918 130.475 113.646 129.255 112.244 128.938C110.796 128.61 109.55 129.581 108.862 131.053C108.16 132.553 108.424 133.755 109.841 134.076ZM118.698 132.543L116.567 137.1L114.936 136.731L118.53 129.046L120.099 129.401L119.51 130.66L119.602 130.681C120.382 129.95 121.441 129.595 122.675 129.874C124.382 130.26 125.032 131.503 124.138 133.414L121.855 138.297L120.239 137.931L122.437 133.232C122.959 132.114 122.615 131.3 121.518 131.052C120.405 130.8 119.273 131.311 118.698 132.543ZM123.836 138.745L127.43 131.059L129.06 131.428L125.467 139.114L123.836 138.745ZM128.809 130.057C128.245 129.929 127.958 129.426 128.189 128.93C128.421 128.435 129.079 128.146 129.642 128.273C130.191 128.397 130.478 128.901 130.247 129.396C130.015 129.891 129.357 130.181 128.809 130.057ZM134.912 132.753L134.35 133.956L132.658 133.573L130.686 137.791C130.282 138.654 130.682 138.917 131.193 139.048C131.422 139.1 131.801 139.154 132.036 139.192L131.421 140.508C131.179 140.485 130.815 140.434 130.373 140.334C129.093 140.044 128.255 139.135 128.925 137.737L131.043 133.207L129.824 132.932L130.386 131.728L131.605 132.004L132.466 130.164L134.081 130.53L133.221 132.37L134.912 132.753ZM132.904 140.797L136.497 133.111L138.128 133.48L134.534 141.166L132.904 140.797ZM137.876 132.108C137.312 131.981 137.025 131.478 137.257 130.982C137.488 130.487 138.146 130.197 138.71 130.325C139.259 130.449 139.546 130.952 139.314 131.448C139.083 131.943 138.425 132.233 137.876 132.108ZM139.948 142.563C137.601 142.032 136.818 140.102 137.93 137.724C139.048 135.332 141.314 134.091 143.661 134.623C145.992 135.15 146.775 137.08 145.657 139.472C144.545 141.85 142.279 143.091 139.948 142.563ZM140.537 141.303C142.03 141.641 143.322 140.572 144.011 139.1C144.699 137.628 144.572 136.206 143.078 135.868C141.554 135.523 140.249 136.621 139.561 138.093C138.872 139.565 139.013 140.958 140.537 141.303ZM149.238 139.453L147.107 144.011L145.476 143.642L149.07 135.956L150.64 136.311L150.051 137.571L150.142 137.592C150.922 136.86 151.981 136.505 153.216 136.785C154.923 137.171 155.572 138.413 154.679 140.324L152.395 145.207L150.78 144.842L152.977 140.143C153.5 139.025 153.156 138.211 152.058 137.963C150.946 137.711 149.814 138.222 149.238 139.453Z" fill="#3C3C43"/>
<rect width="305" height="1" transform="matrix(0.975342 0.220697 -0.423567 0.905865 64.7607 135.629)" fill="#3C3C43" fill-opacity="0.4"/>
<path d="M65.3768 146.231C67.532 146.73 68.6298 148.059 67.9349 149.545C67.2772 150.951 65.4917 151.58 63.508 151.255L62.5798 153.24L66.8202 154.199L66.4926 154.9L57.1888 152.795L57.5164 152.094L61.6997 153.041L62.6279 151.056C60.7566 150.503 59.8504 149.265 60.5056 147.864C61.2005 146.378 63.2116 145.753 65.3768 146.231ZM65.0541 146.921C63.4083 146.548 61.8706 146.999 61.3742 148.06C60.863 149.154 61.7355 150.126 63.3764 150.509C65.0273 150.871 66.555 150.442 67.0663 149.348C67.5626 148.287 66.7 147.293 65.0541 146.921ZM79.529 148.752L75.1064 158.211L74.2034 158.007L78.6261 148.548L79.529 148.752ZM76.2268 149.003L75.8992 149.704L71.9673 148.814L69.7287 153.602C71.7061 154.049 73.0364 154.285 74.6732 154.38L74.437 155.101C72.7356 155.01 71.3735 154.76 69.3112 154.305L68.4882 154.119L71.392 147.909L76.2268 149.003ZM85.6075 150.809C87.7628 151.308 88.8606 152.636 88.1657 154.123C87.508 155.529 85.7225 156.158 83.7387 155.833L82.8105 157.818L87.0509 158.777L86.7233 159.478L77.4195 157.373L77.7471 156.672L81.9304 157.619L82.8586 155.633C80.9873 155.081 80.0811 153.843 80.7363 152.442C81.4312 150.955 83.4423 150.33 85.6075 150.809ZM85.2849 151.499C83.639 151.126 82.1013 151.577 81.605 152.638C81.0937 153.731 81.9662 154.704 83.6072 155.087C85.258 155.449 86.7857 155.019 87.297 153.926C87.7934 152.864 86.9308 151.871 85.2849 151.499ZM89.3697 157.224C90.3192 155.22 91.6814 153.686 93.3932 152.512L94.2618 152.708C92.9932 153.583 91.2705 155.565 90.3869 157.454C89.5034 159.344 89.2158 161.662 89.5017 162.889L88.633 162.692C88.2466 161.032 88.443 159.233 89.3697 157.224ZM99.9005 153.597C102.106 154.096 103.182 155.067 102.651 156.203C102.129 157.317 100.444 157.652 98.2377 157.153C96.0317 156.654 94.9401 155.691 95.4612 154.576C95.9924 153.44 97.6945 153.098 99.9005 153.597ZM99.5878 154.266C97.9419 153.893 96.7032 154.082 96.3871 154.786C96.053 155.473 96.9045 156.112 98.5454 156.495C100.173 156.851 101.414 156.686 101.736 155.996C102.064 155.295 101.211 154.633 99.5878 154.266ZM100.594 160.386L99.1441 163.486L92.1491 161.903L93.5985 158.803L100.594 160.386ZM94.1773 159.674L93.3583 161.425L98.5817 162.607L99.4007 160.856L94.1773 159.674ZM102.485 159.018L102.162 159.708L92.9038 157.613L93.2264 156.923L102.485 159.018ZM108.289 156.903C107.647 158.249 108.12 159.671 109.399 160.477L108.593 161.01C107.656 160.364 107.134 159.401 107.166 158.305C106.197 159.336 104.854 160.006 103.43 160.159L103.256 159.368C105.06 159.213 106.686 158.196 107.382 156.734L107.839 155.757L108.73 155.959L108.289 156.903ZM113.91 156.532L111.294 162.126L110.391 161.922L111.736 159.045L109.473 158.533L109.796 157.843L112.059 158.355L113.007 156.328L113.91 156.532ZM107.793 161.639C109.908 162.118 110.896 163.058 110.365 164.194C109.839 165.319 108.25 165.663 106.135 165.185C104.021 164.707 103.027 163.777 103.553 162.652C104.084 161.516 105.679 161.161 107.793 161.639ZM107.485 162.298C105.931 161.946 104.761 162.151 104.445 162.854C104.116 163.531 104.894 164.164 106.448 164.516C108.002 164.868 109.156 164.671 109.474 163.992C109.801 163.291 109.04 162.649 107.485 162.298ZM115.498 163.136C114.549 165.14 113.186 166.675 111.47 167.859L110.601 167.663C111.87 166.788 113.597 164.796 114.481 162.906C115.364 161.017 115.647 158.709 115.361 157.483L116.23 157.679C116.621 159.329 116.425 161.127 115.498 163.136ZM122.366 159.126C123.927 159.491 124.641 160.639 124.037 161.958C123.472 163.139 122.163 163.776 120.768 163.624L120.013 165.238C120.982 165.41 121.966 165.563 122.902 165.657L122.666 166.296C120.358 166.15 117.937 165.625 116.159 165.211L116.338 164.477C117.157 164.656 118.108 164.866 119.101 165.055L119.865 163.42C118.583 162.972 118.052 161.918 118.619 160.732C119.224 159.413 120.772 158.777 122.366 159.126ZM122.028 159.848C120.965 159.607 119.9 160.047 119.5 160.931C119.076 161.81 119.565 162.601 120.628 162.842C121.68 163.08 122.734 162.637 123.157 161.759C123.558 160.875 123.08 160.086 122.028 159.848ZM127.443 159.594L125.621 163.49L127.278 163.865L126.941 164.587L125.284 164.212L123.03 169.031L122.138 168.83L126.551 159.392L127.443 159.594ZM141.021 162.667L136.599 172.125L135.696 171.921L140.118 162.462L141.021 162.667ZM133.752 161.914L132.585 164.409L135.614 165.094L136.781 162.599L137.661 162.798L134.683 169.168L129.882 168.082L132.86 161.712L133.752 161.914ZM131.101 167.583L134.13 168.268L135.302 165.763L132.273 165.077L131.101 167.583ZM151.137 164.956L146.714 174.414L145.811 174.21L150.234 164.751L151.137 164.956ZM147.834 165.206L147.507 165.907L143.575 165.017L141.336 169.805C143.314 170.252 144.644 170.489 146.281 170.583L146.045 171.304C144.343 171.213 142.981 170.963 140.919 170.508L140.096 170.322L143 164.112L147.834 165.206ZM157.215 167.012C159.37 167.511 160.468 168.84 159.773 170.326C159.116 171.732 157.33 172.361 155.346 172.036L154.418 174.021L158.659 174.98L158.331 175.681L149.027 173.576L149.355 172.875L153.538 173.822L154.466 171.837C152.595 171.284 151.689 170.046 152.344 168.645C153.039 167.158 155.05 166.534 157.215 167.012ZM156.893 167.702C155.247 167.329 153.709 167.78 153.213 168.841C152.701 169.935 153.574 170.907 155.215 171.29C156.866 171.652 158.393 171.223 158.905 170.129C159.401 169.068 158.538 168.074 156.893 167.702ZM160.977 173.427C161.927 171.423 163.289 169.889 165.001 168.715L165.869 168.911C164.601 169.786 162.878 171.768 161.995 173.657C161.111 175.547 160.823 177.865 161.109 179.092L160.241 178.895C159.854 177.235 160.051 175.436 160.977 173.427ZM175.391 170.444L173.142 175.252L172.251 175.051L173.189 173.044L171.074 172.566C170.371 173.61 168.991 174.102 167.619 173.792C166.088 173.445 165.391 172.313 165.987 171.039C166.573 169.787 168.088 169.167 169.62 169.513C170.98 169.821 171.684 170.761 171.39 171.863L173.516 172.344L174.499 170.242L175.391 170.444ZM169.297 170.203C168.262 169.958 167.236 170.394 166.844 171.233C166.442 172.093 166.902 172.866 167.942 173.102C168.948 173.329 169.985 172.895 170.387 172.035C170.779 171.196 170.308 170.42 169.297 170.203ZM172.899 175.773L171.842 178.034L166.172 176.751L165.681 177.802L171.739 179.173L171.426 179.841L164.477 178.269L165.579 175.912L171.248 177.195L171.695 176.24L166.003 174.952L166.315 174.283L172.899 175.773ZM184.991 173.05L184.708 173.655C184.42 174.271 184.043 175.078 183.366 176.04L184.794 176.363L184.487 177.021L180.246 176.062L179.67 177.293L182.722 177.984L181.66 180.255L175.568 178.877L175.071 179.938L181.426 181.376L181.109 182.056L173.851 180.414L174.948 178.068L181.051 179.449L181.518 178.451L175.403 177.067L175.716 176.398L178.79 177.094L179.366 175.863L175.183 174.916L175.49 174.258L182.463 175.835C183.14 174.874 183.496 174.138 183.782 173.528L177.77 172.168L178.087 171.488L184.991 173.05ZM187.106 179.34C186.156 181.343 184.794 182.878 183.077 184.063L182.209 183.866C183.477 182.991 185.205 180.999 186.089 179.109C186.972 177.22 187.255 174.912 186.969 173.686L187.838 173.882C188.229 175.532 188.033 177.331 187.106 179.34ZM201.056 181.78L200.743 182.449L191.474 180.351L191.786 179.683L201.056 181.78ZM199.111 183.101L197.781 185.946L196.866 185.739L197.884 183.563L191.769 182.179L192.082 181.51L199.111 183.101ZM200.688 179.971L200.385 180.619L193.448 179.049L195.239 175.217L202.12 176.774L201.807 177.442L195.83 176.09L195.408 176.992L201.111 178.283L200.808 178.93L195.105 177.64L194.653 178.606L200.688 179.971ZM212.635 178.883L209.97 184.584L209.078 184.382L211.744 178.681L212.635 178.883ZM206.476 184.028C208.602 184.509 209.591 185.449 209.076 186.576C208.538 187.699 206.939 188.065 204.813 187.584C202.676 187.1 201.692 186.15 202.218 185.025C202.744 183.899 204.339 183.544 206.476 184.028ZM206.163 184.697C204.586 184.34 203.444 184.539 203.121 185.229C202.793 185.93 203.544 186.569 205.126 186.915C206.687 187.28 207.857 187.075 208.184 186.375C208.507 185.685 207.729 185.051 206.163 184.697ZM207.094 179.543C206.504 180.806 207.063 182.177 208.37 182.977L207.605 183.532C206.597 182.905 206.011 181.927 206.021 180.838C205.059 181.829 203.711 182.481 202.308 182.615L202.147 181.851C203.906 181.685 205.556 180.697 206.191 179.338L206.335 179.03L203.958 178.492L204.281 177.802L209.904 179.075L209.581 179.765L207.238 179.235L207.094 179.543ZM218.916 180.48C221.179 180.992 222.237 181.866 221.745 182.916C221.244 183.989 219.65 184.262 217.382 183.76C215.124 183.238 214.055 182.362 214.556 181.29C215.047 180.239 216.653 179.968 218.916 180.48ZM218.623 181.107C216.931 180.724 215.77 180.883 215.493 181.502C215.174 182.157 215.988 182.741 217.68 183.123C219.36 183.504 220.523 183.368 220.831 182.71C221.119 182.094 220.303 181.487 218.623 181.107ZM221.713 185.445L221.396 186.124L212.138 184.029L212.455 183.35L221.713 185.445ZM219.825 186.673L218.837 188.785L212.802 187.42L212.345 188.396L218.689 189.832L218.381 190.49L211.146 188.853L212.198 186.602L218.245 187.97L218.647 187.11L212.578 185.737L212.875 185.1L219.825 186.673ZM232.577 184.053L232.249 184.753L228.329 183.866L227.093 186.509C229.276 187.003 230.569 187.237 232.173 187.295L231.958 187.998C230.297 187.927 228.97 187.685 226.713 187.187L225.879 186.998L227.765 182.964L232.577 184.053ZM235.809 184.115L233.436 189.189L232.544 188.987L234.917 183.913L235.809 184.115ZM227.525 188.368L226.965 189.568L231.765 190.654L232.326 189.454L233.218 189.656L231.455 193.425L224.872 191.935L226.634 188.166L227.525 188.368ZM226.081 191.457L230.882 192.544L231.452 191.323L226.652 190.237L226.081 191.457ZM245.947 186.409L241.524 195.867L240.633 195.666L243.03 190.538L241.053 190.091L241.38 189.39L243.358 189.838L245.055 186.207L245.947 186.409ZM242.049 186.501L240.505 189.803L236.859 188.978L235.787 191.271C237.536 191.666 238.827 191.906 240.434 191.982L240.175 192.698C238.524 192.606 237.185 192.362 235.34 191.956L234.563 191.78L236.29 188.086L239.959 188.916L240.857 186.995L237.154 186.157L237.477 185.467L242.049 186.501ZM256.016 188.687L253.366 194.356L252.474 194.154L255.125 188.486L256.016 188.687ZM248.9 187.77L247.267 191.262C249.064 191.663 250.56 191.896 252.289 191.929L252.087 192.658C250.264 192.61 248.717 192.377 246.859 191.945L246.036 191.759L247.997 187.565L248.9 187.77ZM249.958 193.644C252.072 194.122 253.064 195.11 252.518 196.277C251.977 197.434 250.345 197.816 248.23 197.338C246.104 196.857 245.108 195.88 245.649 194.723C246.195 193.555 247.832 193.163 249.958 193.644ZM249.635 194.334C248.058 193.977 246.899 194.184 246.552 194.927C246.214 195.649 246.966 196.312 248.543 196.669C250.109 197.023 251.278 196.795 251.627 196.076C251.963 195.33 251.201 194.688 249.635 194.334ZM262.106 190.746C264.232 191.227 265.34 192.616 264.61 194.177C263.875 195.748 261.805 196.418 259.684 195.927C257.553 195.456 256.446 194.067 257.181 192.496C257.91 190.935 259.98 190.265 262.106 190.746ZM261.789 191.426C260.159 191.045 258.552 191.562 258.038 192.69C257.49 193.834 258.367 194.877 260.002 195.247C261.625 195.615 263.205 195.127 263.741 193.98C264.267 192.855 263.417 191.782 261.789 191.426ZM263.57 198.672L263.242 199.373L253.938 197.268L254.266 196.567L263.57 198.672ZM273.645 201.046L273.318 201.747L264.014 199.642L264.341 198.941L268.525 199.887L269.359 198.104L266.341 197.421L267.701 194.513L273.782 195.888L274.477 194.402L268.373 193.021L268.696 192.331L275.68 193.911L274.344 196.767L268.275 195.394L267.555 196.933L273.865 198.361L273.542 199.051L270.239 198.303L269.405 200.087L273.645 201.046ZM287.521 202.132L287.193 202.832L282.999 201.883L281.574 204.93L280.694 204.731L282.119 201.684L277.935 200.737L278.263 200.037L287.521 202.132ZM285.135 197.342C284.584 198.52 285.874 199.951 287.582 200.596L286.938 201.19C285.47 200.611 284.333 199.544 284.174 198.369C283.036 199.262 281.196 199.644 279.52 199.511L279.501 198.767C281.416 198.942 283.687 198.329 284.243 197.14L284.248 197.13L280.968 196.388L281.285 195.708L284.566 196.45L285.117 195.272L285.997 195.471L285.446 196.65L288.749 197.397L288.431 198.076L285.14 197.332L285.135 197.342ZM298.341 202.913L298.038 203.561L293.844 202.611L293.432 203.493L296.438 204.173L295.485 206.211L289.45 204.845L289.018 205.769L295.362 207.204L295.064 207.841L287.829 206.204L288.836 204.049L294.883 205.417L295.265 204.6L289.196 203.227L289.488 202.6L292.552 203.293L292.964 202.412L288.792 201.468L289.095 200.821L298.341 202.913ZM296.137 197.707L295.725 198.588L298.982 199.325L298.675 199.983L295.486 199.262C295.212 200.239 296.523 201.193 298.34 201.727L297.768 202.302C296.132 201.785 294.829 200.95 294.626 199.912C293.583 200.668 291.823 200.81 290.052 200.556L290.087 199.86C291.997 200.169 293.864 199.934 294.48 199.034L291.314 198.318L291.622 197.66L294.845 198.389L295.257 197.508L296.137 197.707ZM305.475 201.686L305.157 202.366L300.059 201.212L300.377 200.533L302.491 201.011L303.122 199.663L304.013 199.865L303.383 201.213L305.475 201.686ZM302.31 202.426C303.59 202.716 304.088 203.814 303.513 205.069C302.911 206.33 301.575 207.026 300.295 206.736C299.026 206.449 298.534 205.34 299.124 204.076C299.71 202.824 301.041 202.139 302.31 202.426ZM301.983 203.127C301.178 202.956 300.312 203.429 299.925 204.257C299.532 205.096 299.832 205.833 300.637 206.003C301.444 206.198 302.321 205.727 302.713 204.888C303.101 204.06 302.789 203.321 301.983 203.127ZM309.816 200.861L305.404 210.298L304.547 210.104L306.775 205.338L305.426 205.033L303.416 209.332L302.57 209.141L306.656 200.404L307.501 200.595L305.749 204.343L307.098 204.648L308.959 200.667L309.816 200.861ZM322.641 203.763L320.382 208.593L319.479 208.389L319.941 207.401L317.232 206.788L317.54 206.13L320.249 206.743L320.78 205.607L318.219 205.028C316.882 206.375 314.836 207.021 312.351 207.01L312.353 206.248C315.096 206.276 317.076 205.474 317.957 203.994L314.357 203.18L314.679 202.49L319.263 203.527C319.116 203.84 318.941 204.135 318.749 204.408L321.092 204.939L321.738 203.559L322.641 203.763ZM320.184 209.018L319.107 211.321L313.437 210.038L312.921 211.142L318.933 212.503L318.611 213.193L311.707 211.631L312.844 209.2L318.501 210.48L318.963 209.493L313.282 208.207L313.6 207.528L320.184 209.018ZM332.276 205.943L331.144 208.364L332.676 208.71L332.343 209.421L330.812 209.075L329.71 211.431L328.818 211.23L331.384 205.741L332.276 205.943ZM323.984 210.594L323.513 211.602L328.153 212.652L328.625 211.644L329.516 211.845L327.923 215.253L321.499 213.8L323.093 210.392L323.984 210.594ZM322.704 213.332L327.344 214.383L327.845 213.31L323.205 212.26L322.704 213.332ZM329.956 206.498L329.634 207.188L323.576 205.818L323.899 205.127L326.482 205.712L326.978 204.65L327.87 204.852L327.373 205.914L329.956 206.498ZM326.401 206.938C327.864 207.269 328.533 208.137 328.073 209.148C327.59 210.154 326.316 210.581 324.853 210.25C323.378 209.917 322.698 209.047 323.181 208.041C323.641 207.03 324.927 206.604 326.401 206.938ZM326.098 207.586C325.143 207.358 324.31 207.627 324.038 208.235C323.739 208.848 324.19 209.396 325.15 209.613C326.099 209.828 326.928 209.569 327.227 208.956C327.499 208.349 327.052 207.79 326.098 207.586ZM342.311 208.214L340.49 212.11L342.193 212.495L341.87 213.185L340.167 212.8L337.899 217.651L337.007 217.449L341.42 208.012L342.311 208.214ZM339.727 209.308L339.404 209.998L333.358 208.63L333.681 207.94L336.298 208.532L336.953 207.131L337.845 207.332L337.19 208.734L339.727 209.308ZM336.065 210.111C337.506 210.437 338.129 211.564 337.544 212.84C336.937 214.112 335.48 214.768 334.04 214.442C332.589 214.114 331.954 212.984 332.561 211.713C333.145 210.436 334.614 209.782 336.065 210.111ZM335.738 210.812C334.789 210.597 333.804 211.055 333.418 211.907C333.005 212.764 333.419 213.527 334.373 213.731C335.305 213.954 336.274 213.504 336.687 212.646C337.073 211.795 336.675 211.024 335.738 210.812ZM352.266 211.523L351.824 212.468C351.272 213.622 350.666 214.917 349.412 216.735L348.542 216.432C349.774 214.716 350.395 213.389 350.921 212.263L351.04 212.009L344.777 210.591L345.099 209.901L352.266 211.523ZM350.357 218.228L350.034 218.918L340.776 216.823L341.098 216.133L344.733 216.956L346.312 213.58L347.192 213.779L345.613 217.155L350.357 218.228ZM352.669 219.256L350.427 221.942L349.582 221.75L351.56 219.005L352.669 219.256ZM56.684 162.416C55.8685 164.133 56.3231 166.161 57.5276 167.126L56.6712 167.66C55.7625 166.874 55.2811 165.538 55.4257 164.08C54.2838 165.4 52.7277 166.363 51.2784 166.651L51.0346 165.821C52.8461 165.515 54.9422 164.006 55.7925 162.214L56.5966 160.494L57.4881 160.696L56.684 162.416ZM62.6366 160.957L58.2139 170.416L57.311 170.211L61.7336 160.753L62.6366 160.957ZM72.3176 163.148L70.9724 166.025L72.504 166.371L72.1764 167.072L70.6448 166.725L69.0863 170.059L68.1833 169.854L71.4147 162.944L72.3176 163.148ZM69.232 163.26C68.0953 165.691 65.377 167.071 62.0538 167.258L61.9779 166.502C64.7426 166.347 66.9617 165.358 67.9328 163.74L64.1381 162.882L64.4657 162.181L69.232 163.26ZM68.7954 171.789L68.4678 172.49L61.6328 170.943L63.0475 167.917L63.939 168.119L62.8519 170.444L68.7954 171.789ZM85.5198 167.755L85.1972 168.445L76.8763 166.562L77.1989 165.872L80.925 166.716L81.5256 165.431L82.4057 165.63L81.8051 166.915L85.5198 167.755ZM83.1815 173.999L82.8589 174.689L73.5551 172.584L73.8777 171.894L83.1815 173.999ZM80.7553 168.133C82.8062 168.585 83.7702 169.578 83.2242 170.746C82.6831 171.903 81.064 172.311 79.018 171.848C76.9492 171.38 75.9967 170.39 76.5492 169.235C77.0837 168.065 78.6915 167.654 80.7553 168.133ZM80.4376 168.812C78.9339 168.46 77.7717 168.702 77.4407 169.437C77.0868 170.167 77.827 170.827 79.3357 171.169C80.8216 171.505 81.9673 171.271 82.3098 170.539C82.6523 169.806 81.9285 169.138 80.4376 168.812ZM94.5562 173.568L94.2335 174.258L84.9297 172.153L85.2523 171.463L94.5562 173.568ZM95.5252 168.657L94.4828 170.887L88.4822 169.529L88.0404 170.474L94.2582 171.881L93.9554 172.528L86.8461 170.92L87.8835 168.701L93.8727 170.056L94.3095 169.122L88.286 167.759L88.5987 167.09L95.5252 168.657ZM92.6314 174.846L91.2812 177.734L84.4462 176.187L85.7963 173.3L92.6314 174.846ZM86.3588 174.178L85.644 175.707L90.7188 176.855L91.4336 175.327L86.3588 174.178ZM95.6454 174.671C96.595 172.668 97.9572 171.133 99.6689 169.959L100.538 170.156C99.2689 171.031 97.5462 173.012 96.6627 174.902C95.7791 176.791 95.4916 179.109 95.7774 180.336L94.9087 180.139C94.5223 178.479 94.7187 176.68 95.6454 174.671ZM98.1387 178.476L101.732 170.79L102.761 171.023L99.5645 177.859L103.405 178.728L103.008 179.577L98.1387 178.476ZM111.584 175.156C111.845 174.381 111.306 173.778 110.312 173.553C109.214 173.305 108.246 173.672 107.904 174.405C107.526 175.212 108.359 175.729 108.918 176.02L109.642 176.418C110.434 176.832 111.662 177.638 110.992 179.071C110.406 180.324 108.864 181.055 106.944 180.621C105.161 180.217 104.454 179.106 104.958 177.812L106.01 178.05C105.699 178.93 106.368 179.528 107.351 179.75C108.494 180.009 109.604 179.661 109.996 178.823C110.344 178.08 109.712 177.62 108.952 177.19L108.054 176.705C106.915 176.059 106.403 175.263 106.889 174.222C107.495 172.927 109.143 172.349 110.743 172.711C112.343 173.073 113.091 174.205 112.59 175.383L111.584 175.156ZM114.228 174.556L114.625 173.707L120.866 175.119L120.469 175.969L117.874 175.381L114.678 182.218L113.638 181.983L116.834 175.146L114.228 174.556ZM122.237 175.43L123.472 175.709L123.302 182.667L123.405 182.69L129.152 176.994L130.387 177.274L126.793 184.959L125.822 184.74L128.537 178.933L128.457 178.915L123.17 184.14L122.256 183.933L122.399 177.544L122.33 177.528L119.615 183.335L118.644 183.115L122.237 175.43ZM132.026 182.904C131.077 184.907 129.715 186.442 127.998 187.627L127.129 187.43C128.398 186.555 130.126 184.563 131.009 182.673C131.893 180.784 132.175 178.477 131.889 177.25L132.758 177.446C133.15 179.096 132.953 180.895 132.026 182.904ZM144.165 179.405L142.344 183.301L143.887 183.65L143.559 184.351L142.016 184.002L139.753 188.843L138.85 188.638L143.262 179.201L144.165 179.405ZM138.723 179.313C137.66 181.561 136.078 183.644 133.389 185.043L132.893 184.403C135.113 183.291 136.551 181.674 137.55 179.822L135.595 179.38L135.923 178.679L138.723 179.313ZM141.512 179.944C140.453 182.181 138.883 184.702 136.023 186.332L135.51 185.699C137.878 184.392 139.338 182.404 140.339 180.453L138.716 180.086L139.043 179.385L141.512 179.944ZM148.514 183.594C147.764 185.197 148.262 187.106 149.476 188.05L148.666 188.594C147.713 187.821 147.193 186.5 147.335 185.088C146.207 186.365 144.621 187.338 143.207 187.617L142.978 186.837C144.732 186.518 146.835 185.022 147.611 183.39L148.186 182.158L145.786 181.615L146.109 180.925L151.835 182.221L151.513 182.911L149.089 182.363L148.514 183.594ZM154.612 181.769L150.199 191.207L149.296 191.002L153.709 181.565L154.612 181.769ZM167.226 184.635L165.89 187.491L167.422 187.837L167.094 188.538L165.563 188.191L163.984 191.567L163.093 191.365L166.334 184.433L167.226 184.635ZM163.708 193.266L163.381 193.966L156.557 192.422L157.947 189.45L158.827 189.649L157.765 191.921L163.708 193.266ZM160.279 183.814L159.534 185.407L162.494 186.077L163.239 184.484L164.131 184.686L161.951 189.346L157.22 188.276L159.399 183.615L160.279 183.814ZM158.417 187.795L161.378 188.465L162.187 186.735L159.226 186.065L158.417 187.795ZM171.935 186.323C172.794 186.511 173.387 186.974 173.62 187.585L176.283 188.187L176.923 186.818L177.826 187.022L175.21 192.616L174.307 192.412L174.938 191.064L172.286 190.464C171.57 190.86 170.7 190.991 169.845 190.792C168.32 190.459 167.631 189.282 168.247 187.965C168.867 186.638 170.419 185.968 171.935 186.323ZM171.597 187.045C170.562 186.799 169.521 187.268 169.104 188.159C168.692 189.04 169.137 189.845 170.177 190.081C171.183 190.308 172.235 189.842 172.647 188.961C173.064 188.069 172.608 187.262 171.597 187.045ZM171.734 192.076C173.837 192.552 174.832 193.505 174.301 194.641C173.765 195.788 172.155 196.151 170.051 195.675C167.937 195.197 166.953 194.246 167.489 193.1C168.02 191.964 169.62 191.598 171.734 192.076ZM171.431 192.724C169.877 192.372 168.702 192.588 168.369 193.299C168.037 194.01 168.81 194.655 170.364 195.006C171.93 195.361 173.089 195.153 173.421 194.442C173.754 193.731 172.997 193.078 171.431 192.724ZM173.736 188.362C173.713 188.615 173.645 188.882 173.516 189.158C173.392 189.423 173.224 189.661 173.031 189.87L175.26 190.374L175.965 188.867L173.736 188.362ZM183.828 190.188L183.51 190.867L178.413 189.714L178.73 189.034L180.845 189.513L181.475 188.165L182.367 188.366L181.736 189.715L183.828 190.188ZM180.664 190.928C181.944 191.217 182.441 192.316 181.867 193.571C181.265 194.832 179.929 195.527 178.648 195.237C177.38 194.95 176.887 193.841 177.478 192.578C178.064 191.325 179.395 190.64 180.664 190.928ZM180.336 191.628C179.531 191.458 178.665 191.931 178.278 192.759C177.886 193.598 178.186 194.335 178.991 194.505C179.798 194.699 180.675 194.229 181.067 193.39C181.454 192.562 181.143 191.822 180.336 191.628ZM188.17 189.363L183.757 198.8L182.9 198.606L185.129 193.84L183.78 193.534L181.77 197.834L180.924 197.642L185.009 188.906L185.855 189.097L184.103 192.844L185.451 193.149L187.313 189.169L188.17 189.363ZM200.514 192.156L199.432 194.47L200.964 194.817L200.641 195.507L199.109 195.16L198.007 197.517L197.116 197.315L199.623 191.954L200.514 192.156ZM197.449 192.143C196.326 194.518 193.737 195.811 190.373 195.895L190.32 195.143C193.116 195.083 195.23 194.171 196.166 192.616L192.406 191.765L192.728 191.075L197.449 192.143ZM197.804 197.952L196.161 201.466L189.726 200.01L191.369 196.496L197.804 197.952ZM191.938 197.388L190.935 199.532L195.587 200.585L196.59 198.44L191.938 197.388ZM211.11 194.553L208.479 200.18L207.576 199.975L208.732 197.502L206.686 197.039L207.009 196.349L209.055 196.812L210.207 194.349L211.11 194.553ZM204.968 199.714C207.083 200.192 208.076 201.122 207.555 202.236C207.034 203.351 205.445 203.695 203.325 203.228C201.216 202.739 200.222 201.809 200.743 200.695C201.264 199.58 202.854 199.235 204.968 199.714ZM204.665 200.361C203.111 200.01 201.946 200.204 201.634 200.896C201.305 201.573 202.083 202.207 203.638 202.559C205.192 202.911 206.346 202.714 206.664 202.034C206.986 201.344 206.22 200.713 204.665 200.361ZM205.409 195.177C204.833 196.408 205.304 197.806 206.567 198.62L205.785 199.183C204.821 198.542 204.305 197.551 204.335 196.472C203.371 197.48 202.014 198.153 200.609 198.305L200.453 197.53C202.2 197.362 203.87 196.331 204.501 194.983L204.664 194.633L202.367 194.113L202.695 193.412L208.17 194.651L207.842 195.352L205.567 194.837L205.409 195.177ZM215.805 196.379C217.405 196.741 218.114 197.899 217.499 199.216C216.883 200.532 215.33 201.178 213.73 200.816C212.13 200.454 211.397 199.29 212.024 197.977C212.628 196.658 214.204 196.017 215.805 196.379ZM215.462 197.111C214.376 196.865 213.305 197.292 212.904 198.176C212.481 199.054 212.986 199.838 214.072 200.084C215.147 200.327 216.207 199.897 216.619 199.016C217.031 198.135 216.537 197.354 215.462 197.111ZM221.134 196.822L216.711 206.28L215.819 206.078L220.242 196.62L221.134 196.822ZM209.741 201.616C211.616 202.04 214.204 202.614 216.599 202.815L216.38 203.447C213.871 203.325 211.363 202.769 209.534 202.355L209.741 201.616ZM230.025 201.944L225.032 207.189L224.015 206.958L224.424 200.677L225.499 200.92L225.051 205.878L225.12 205.894L228.951 201.701L230.025 201.944ZM228.688 206.208C229.309 204.881 230.705 204.868 231.814 205.037C232.221 205.1 233.249 205.28 233.534 205.333L233.753 204.865C234.095 204.133 233.825 203.602 232.888 203.39C232.099 203.212 231.472 203.445 231.131 203.85L230.102 203.617C230.66 202.722 231.934 202.294 233.306 202.604C234.117 202.788 235.533 203.355 234.684 205.17L232.907 208.971L231.936 208.751L232.303 207.965L232.257 207.955C231.868 208.301 231.048 208.703 229.974 208.459C228.797 208.193 228.162 207.333 228.688 206.208ZM229.652 206.473C229.369 207.078 229.773 207.51 230.528 207.681C231.636 207.932 232.576 207.381 232.914 206.659L233.187 206.076L231.571 205.827C230.655 205.679 229.944 205.847 229.652 206.473ZM239.061 201.864L235.468 209.55L234.485 209.327L238.078 201.642L239.061 201.864ZM239.585 210.611C237.79 210.205 237.233 208.775 238.062 207.003C238.891 205.23 240.587 204.252 242.278 204.635C243.581 204.929 244.605 205.983 243.608 208.117L243.429 208.499L238.926 207.48C238.4 208.711 238.853 209.553 239.962 209.804C240.705 209.972 241.313 209.781 241.71 209.472L242.762 209.71C242.057 210.513 240.865 210.9 239.585 210.611ZM239.299 206.707L242.797 207.499C243.248 206.533 242.918 205.672 241.901 205.441C240.826 205.198 239.773 205.829 239.299 206.707ZM246.104 208.13L244.486 211.591L243.503 211.368L246.198 205.604L247.147 205.818L246.725 206.721L246.805 206.739C247.375 206.222 248.13 205.959 249.079 206.173C250.336 206.458 250.838 207.358 250.153 208.823L248.44 212.485L247.458 212.263L249.14 208.664C249.557 207.773 249.28 207.123 248.399 206.924C247.497 206.719 246.571 207.132 246.104 208.13ZM252.501 213.533C250.74 213.135 250.247 211.65 251.056 209.919C251.875 208.168 253.571 207.19 255.262 207.573C256.588 207.873 257.234 208.817 256.882 209.947L255.899 209.724C256.01 209.162 255.731 208.571 254.908 208.385C253.799 208.134 252.659 208.815 252.054 210.11C251.428 211.448 251.751 212.46 252.883 212.716C253.614 212.881 254.343 212.647 254.812 212.049L255.795 212.271C255.154 213.265 253.884 213.846 252.501 213.533ZM258.764 214.95C256.97 214.544 256.412 213.115 257.241 211.342C258.07 209.57 259.766 208.592 261.457 208.974C262.76 209.269 263.784 210.323 262.787 212.456L262.608 212.839L258.105 211.82C257.58 213.051 258.033 213.893 259.141 214.144C259.884 214.312 260.492 214.121 260.889 213.811L261.941 214.049C261.237 214.853 260.044 215.24 258.764 214.95ZM258.478 211.047L261.976 211.839C262.428 210.873 262.097 210.011 261.08 209.781C260.006 209.538 258.953 210.169 258.478 211.047ZM269.393 208.329L262.415 216.927L261.524 216.725L268.49 208.124L269.393 208.329ZM267.058 214.89C267.679 213.563 269.075 213.551 270.184 213.719C270.591 213.782 271.619 213.962 271.904 214.015L272.122 213.548C272.465 212.815 272.195 212.285 271.258 212.072C270.469 211.894 269.841 212.128 269.501 212.532L268.472 212.299C269.03 211.404 270.304 210.976 271.676 211.287C272.487 211.47 273.903 212.037 273.054 213.852L271.277 217.653L270.306 217.433L270.673 216.647L270.627 216.637C270.238 216.983 269.418 217.385 268.344 217.142C267.167 216.875 266.532 216.016 267.058 214.89ZM268.021 215.155C267.738 215.76 268.143 216.192 268.897 216.363C270.006 216.614 270.946 216.064 271.284 215.342L271.557 214.758L269.941 214.51C269.025 214.361 268.314 214.529 268.021 215.155ZM272.855 218.01L275.55 212.245L276.498 212.46L276.086 213.341L276.155 213.357C276.657 212.825 277.48 212.577 278.212 212.742C278.36 212.776 278.607 212.843 278.716 212.88L278.284 213.803C278.226 213.767 277.971 213.662 277.72 213.605C276.828 213.403 275.897 213.827 275.535 214.602L273.837 218.232L272.855 218.01ZM279.223 219.58C277.532 219.197 276.94 217.76 277.779 215.966C278.618 214.172 280.316 213.242 282.008 213.625C283.688 214.005 284.264 215.45 283.425 217.244C282.586 219.038 280.904 219.96 279.223 219.58ZM279.601 218.773C280.847 219.055 281.906 218.168 282.442 217.021C282.978 215.875 282.877 214.713 281.631 214.431C280.362 214.144 279.298 215.042 278.762 216.189C278.226 217.335 278.332 218.486 279.601 218.773ZM288.409 218.912L289.997 215.515L290.969 215.734L288.273 221.499L287.302 221.279L287.758 220.302L287.69 220.287C287.12 220.803 286.295 221.133 285.358 220.921C284.181 220.655 283.679 219.755 284.364 218.29L286.077 214.627L287.06 214.85L285.377 218.449C284.99 219.277 285.302 219.934 286.09 220.112C286.787 220.27 287.907 219.984 288.409 218.912ZM295.298 218.369C295.384 217.86 295.144 217.454 294.413 217.288C293.647 217.115 292.92 217.373 292.691 217.862C292.513 218.244 292.72 218.584 293.377 218.909L294.204 219.331C295.198 219.826 295.509 220.459 295.131 221.266C294.665 222.264 293.442 222.797 291.888 222.446C290.493 222.13 289.927 221.368 290.258 220.281L291.287 220.514C291.138 221.102 291.46 221.468 292.237 221.644C293.117 221.843 293.836 221.63 294.089 221.089C294.278 220.686 294.098 220.34 293.459 220.031L292.616 219.617C291.64 219.138 291.326 218.456 291.684 217.692C292.145 216.705 293.404 216.203 294.775 216.514C296.055 216.803 296.569 217.624 296.258 218.586L295.298 218.369ZM296.124 221.467C296.745 220.14 298.141 220.128 299.25 220.296C299.657 220.359 300.685 220.539 300.97 220.592L301.188 220.125C301.531 219.392 301.261 218.861 300.324 218.649C299.535 218.471 298.907 218.705 298.567 219.109L297.538 218.876C298.096 217.981 299.37 217.553 300.742 217.864C301.553 218.047 302.969 218.614 302.12 220.429L300.343 224.23L299.372 224.01L299.739 223.224L299.693 223.214C299.304 223.56 298.484 223.962 297.41 223.719C296.232 223.452 295.598 222.593 296.124 221.467ZM297.087 221.732C296.804 222.337 297.209 222.769 297.963 222.94C299.072 223.191 300.012 222.64 300.349 221.919L300.622 221.335L299.007 221.087C298.091 220.938 297.38 221.106 297.087 221.732ZM306.497 217.123L302.903 224.809L301.92 224.587L305.514 216.901L306.497 217.123ZM315.345 222.988L315.037 223.646L305.734 221.54L306.041 220.882L315.345 222.988ZM313.519 224.136L312.581 226.142L306.478 224.761L306.056 225.663L312.491 227.119L312.208 227.724L304.87 226.064L305.843 223.983L311.958 225.367L312.335 224.56L306.208 223.174L306.501 222.548L313.519 224.136ZM316.061 218.618L315.148 220.572L309.147 219.214L308.76 220.042L314.943 221.441L314.661 222.046L307.585 220.445L308.524 218.439L314.513 219.794L314.875 219.019L308.852 217.656L309.135 217.051L316.061 218.618ZM329.865 221.425L325.452 230.862L324.584 230.666L328.996 221.228L329.865 221.425ZM327.748 221.169L323.653 229.927L322.795 229.733L324.245 226.633L322.622 226.266C321.826 227.13 320.893 227.53 320.025 227.333C318.699 227.033 318.437 225.565 319.375 223.559C320.313 221.553 321.766 220.473 323.092 220.773C323.961 220.969 324.377 221.674 324.29 222.699L325.913 223.066L326.89 220.975L327.748 221.169ZM322.725 221.558C321.89 221.37 320.929 222.209 320.21 223.748C319.495 225.276 319.558 226.359 320.397 226.537C321.215 226.734 322.204 225.889 322.919 224.361C323.638 222.822 323.548 221.745 322.725 221.558ZM324.161 223.433C324.074 223.783 323.937 224.157 323.753 224.55C323.572 224.937 323.366 225.296 323.155 225.612L324.572 225.932L325.59 223.756L324.161 223.433ZM338.3 228.604L337.983 229.284L328.725 227.189L329.042 226.509L338.3 228.604ZM336.363 230.044L334.973 233.017L334.07 232.812L335.143 230.519L328.959 229.12L329.277 228.441L336.363 230.044ZM336.344 222.868L335.888 223.844L339.145 224.581L338.832 225.25L335.632 224.526C335.194 225.612 336.455 226.713 338.303 227.302L337.698 227.893C336.103 227.344 334.874 226.432 334.709 225.338C333.645 226.154 331.879 226.388 330.131 226.181L330.142 225.455C332.123 225.733 334.073 225.359 334.649 224.303L331.472 223.585L331.784 222.916L335.008 223.645L335.464 222.668L336.344 222.868ZM349.25 225.811L347.428 229.707L349.131 230.093L348.809 230.783L347.106 230.397L344.837 235.249L343.946 235.047L348.359 225.61L349.25 225.811ZM346.666 226.905L346.343 227.595L340.297 226.227L340.619 225.537L343.237 226.129L343.892 224.728L344.784 224.93L344.128 226.331L346.666 226.905ZM343.004 227.708C344.444 228.034 345.067 229.161 344.483 230.438C343.876 231.709 342.419 232.365 340.979 232.039C339.527 231.711 338.893 230.581 339.5 229.31C340.084 228.034 341.552 227.38 343.004 227.708ZM342.676 228.409C341.728 228.194 340.743 228.652 340.357 229.504C339.944 230.361 340.358 231.124 341.311 231.328C342.244 231.551 343.212 231.101 343.626 230.244C344.012 229.392 343.614 228.621 342.676 228.409ZM54.3593 178.281L54.0466 178.95L47.0858 177.375L48.5749 174.19L49.4665 174.392L48.2901 176.908L54.3593 178.281ZM54.5204 180.478L54.2027 181.157L44.8988 179.052L45.2165 178.372L54.5204 180.478ZM51.7758 183.942L51.4531 184.632L44.3781 183.031L45.6587 180.292L46.5502 180.494L45.5922 182.542L51.7758 183.942ZM65.4966 178.195L64.7768 179.735L67.0971 180.26L68.0551 178.211L68.9466 178.412L66.6782 183.264L65.7867 183.062L66.7794 180.939L64.4592 180.414L63.6948 182.049L58.9743 180.981L60.7761 177.127L65.4966 178.195ZM61.3549 177.998L60.1785 180.514L63.1274 181.181L64.3038 178.665L61.3549 177.998ZM66.4548 183.741L65.3976 186.003L59.7284 184.72L59.237 185.771L65.2948 187.141L64.9821 187.81L58.0328 186.238L59.1347 183.881L64.8039 185.164L65.2506 184.209L59.5586 182.921L59.8713 182.252L66.4548 183.741ZM75.8482 180.925L75.5206 181.626L71.463 180.707L70.5497 182.661L74.2415 183.496L73.9238 184.176L70.232 183.34L69.1648 185.622C71.0622 186.052 72.3974 186.278 74.0636 186.391L73.8324 187.101C72.118 186.983 70.7216 186.726 68.7622 186.294L67.9507 186.111L70.8991 179.805L75.8482 180.925ZM79.0505 180.699L74.6378 190.136L73.7349 189.932L78.1476 180.494L79.0505 180.699ZM86.5496 190.718L86.222 191.419L76.9182 189.314L77.2458 188.613L81.4291 189.56L82.5062 187.256L79.4201 186.558L81.49 182.131L88.5422 183.727L86.4723 188.154L83.3863 187.455L82.3092 189.759L86.5496 190.718ZM82.0574 182.999L80.613 186.088L85.9164 187.288L87.3608 184.199L82.0574 182.999ZM95.6057 185.055L95.288 185.735L91.6533 184.912L90.4918 187.396C92.4756 187.857 93.708 188.059 95.2241 188.115L95.0257 188.809C93.44 188.768 92.1694 188.539 90.0827 188.055L89.294 187.876L91.0909 184.034L95.6057 185.055ZM98.8241 185.173L97.886 187.179L99.4175 187.526L99.0949 188.216L97.5633 187.869L96.5954 189.939L95.7039 189.738L97.9326 184.971L98.8241 185.173ZM96.377 190.407L95.2899 192.731L89.7122 191.469L89.2109 192.541L95.1658 193.889L94.8481 194.568L88.0131 193.022L89.1399 190.612L94.7062 191.871L95.1678 190.884L89.5786 189.619L89.8963 188.94L96.377 190.407ZM111.877 188.127L110.795 190.441L112.326 190.787L112.004 191.477L110.472 191.131L109.37 193.487L108.479 193.286L110.985 187.925L111.877 188.127ZM108.812 188.114C107.688 190.489 105.1 191.782 101.736 191.866L101.683 191.114C104.479 191.054 106.593 190.142 107.529 188.587L103.768 187.736L104.091 187.046L108.812 188.114ZM109.167 193.923L107.524 197.436L101.089 195.98L102.732 192.467L109.167 193.923ZM103.301 193.358L102.298 195.503L106.95 196.555L107.953 194.411L103.301 193.358ZM122.472 190.524L119.842 196.15L118.939 195.946L120.095 193.473L118.049 193.01L118.372 192.32L120.418 192.783L121.569 190.32L122.472 190.524ZM116.331 195.685C118.445 196.163 119.439 197.092 118.918 198.207C118.397 199.322 116.807 199.666 114.688 199.198C112.578 198.709 111.585 197.78 112.106 196.665C112.627 195.551 114.216 195.206 116.331 195.685ZM116.028 196.332C114.474 195.98 113.308 196.175 112.997 196.867C112.668 197.544 113.446 198.178 115.001 198.53C116.555 198.881 117.709 198.685 118.026 198.005C118.349 197.315 117.582 196.684 116.028 196.332ZM116.771 191.147C116.196 192.379 116.667 193.777 117.929 194.591L117.148 195.153C116.184 194.513 115.668 193.521 115.698 192.442C114.734 193.451 113.376 194.124 111.972 194.276L111.816 193.501C113.563 193.333 115.233 192.302 115.863 190.954L116.027 190.603L113.73 190.084L114.057 189.383L119.532 190.622L119.205 191.322L116.93 190.808L116.771 191.147ZM132.548 192.816L129.322 199.716L128.431 199.514L131.657 192.614L132.548 192.816ZM128.883 201.413L128.555 202.113L121.674 200.556L123.089 197.531L123.98 197.733L122.893 200.057L128.883 201.413ZM126.754 192.233C128.275 192.577 128.971 193.791 128.335 195.149C127.69 196.529 126.105 197.216 124.585 196.872C123.065 196.528 122.364 195.324 123.009 193.944C123.645 192.585 125.234 191.889 126.754 192.233ZM126.412 192.965C125.383 192.732 124.31 193.217 123.889 194.143C123.436 195.086 123.899 195.906 124.928 196.139C125.934 196.367 127.014 195.895 127.455 194.95C127.887 194.027 127.418 193.193 126.412 192.965ZM137.239 195.38C136.583 196.757 137.086 198.221 138.367 199.051L137.602 199.606C136.611 198.941 136.061 197.913 136.099 196.765C135.124 197.783 133.769 198.451 132.379 198.612L132.218 197.847C133.981 197.671 135.66 196.595 136.325 195.173L136.747 194.271L137.661 194.478L137.239 195.38ZM139.79 201.251L138.256 204.531L137.365 204.33L138.576 201.739L132.632 200.395L132.955 199.705L139.79 201.251ZM142.669 195.094L140.008 200.784L139.117 200.582L141.777 194.892L142.669 195.094ZM154.189 200.894L153.871 201.573L150.739 200.864L150.094 202.244L154.289 203.194L153.966 203.884L144.696 201.786L145.019 201.096L149.214 202.045L149.859 200.665L146.933 200.003L148.432 196.797L149.312 196.996L148.131 199.523L154.189 200.894ZM151.628 206.559L151.3 207.26L144.202 205.654L145.523 202.83L146.414 203.032L145.422 205.155L151.628 206.559ZM164.481 205.371L164.159 206.061L160.021 205.125L159.118 207.057L158.226 206.855L159.13 204.923L154.855 203.956L155.178 203.266L164.481 205.371ZM165.31 200.734L163.776 204.014L156.895 202.457L158.429 199.177L165.31 200.734ZM159.002 200.034L158.088 201.987L163.197 203.143L164.111 201.19L159.002 200.034ZM161.709 208.84L161.381 209.541L154.306 207.94L155.577 205.223L156.48 205.427L155.537 207.444L161.709 208.84Z" fill="#3C3C43" fill-opacity="0.8"/>
<rect x="0.275888" y="0.563281" width="32" height="21" rx="10.5" transform="matrix(0.975342 0.220697 -0.423567 0.905865 36.5286 196.525)" stroke="#0051D7"/>
<path d="M46.755 208.106C47.0114 206.99 46.2965 206.194 45.2106 205.948C43.7133 205.61 42.0462 206.418 41.118 208.403C40.1897 210.388 40.8543 211.724 42.3516 212.063C43.4374 212.309 44.677 211.955 45.4198 210.961L46.4485 211.194C45.4167 212.698 43.6148 213.335 41.9346 212.955C39.8087 212.474 38.9869 210.609 40.1236 208.178C41.2602 205.747 43.5016 204.576 45.6276 205.057C47.2963 205.434 48.2197 206.676 47.7837 208.338L46.755 208.106ZM50.7328 206.329L50.1544 213.324L50.2458 213.344L55.7047 207.454L56.7906 207.7L50.168 214.7L49.0821 214.455L49.647 206.084L50.7328 206.329Z" fill="#0051D7"/>
<rect x="0.275888" y="0.563281" width="39" height="21" rx="10.5" transform="matrix(0.975342 0.220697 -0.423567 0.905865 74.7942 205.184)" stroke="#0051D7"/>
<path d="M76.9124 220.751L80.5061 213.066L81.5348 213.299L78.3381 220.135L82.1786 221.004L81.7815 221.853L76.9124 220.751ZM83.153 222.164L86.7467 214.478L87.7754 214.711L84.5788 221.547L88.4192 222.416L88.0221 223.265L83.153 222.164ZM92.9874 215.89L94.2218 216.169L94.0523 223.127L94.1552 223.151L99.9024 217.455L101.137 217.734L97.5431 225.42L96.5716 225.2L99.2867 219.393L99.2067 219.375L93.9199 224.6L93.0055 224.393L93.1489 218.004L93.0804 217.989L90.3652 223.796L89.3937 223.576L92.9874 215.89Z" fill="#0051D7"/>
<rect x="0.275888" y="0.563281" width="47" height="21" rx="10.5" transform="matrix(0.975342 0.220697 -0.423567 0.905865 119.888 215.387)" stroke="#0051D7"/>
<path d="M131.018 224.495L132.046 224.728L129.669 229.812C128.929 231.394 127.119 232.264 125.165 231.822C123.21 231.38 122.483 229.936 123.222 228.354L125.6 223.269L126.629 223.502L124.286 228.512C123.764 229.627 124.222 230.622 125.582 230.93C126.953 231.241 128.154 230.62 128.675 229.505L131.018 224.495ZM134.904 225.374L131.31 233.06L130.281 232.827L133.875 225.141L134.904 225.374ZM139.724 226.066L132.746 234.664L131.855 234.463L138.821 225.862L139.724 226.066ZM146.059 227.898L147.088 228.131L144.71 233.216C143.971 234.798 142.161 235.668 140.206 235.226C138.252 234.783 137.524 233.339 138.264 231.757L140.641 226.672L141.67 226.905L139.327 231.916C138.806 233.03 139.263 234.026 140.623 234.334C141.995 234.644 143.195 234.024 143.716 232.909L146.059 227.898ZM149.442 228.664L150.061 232.314L150.13 232.329L153.729 229.634L154.94 229.908L150.549 233.164L151.346 237.594L150.135 237.319L149.475 233.731L149.406 233.715L145.837 236.347L144.626 236.073L149.086 232.833L148.219 228.387L149.442 228.664Z" fill="#0051D7"/>
</g>
<rect x="0.44142" y="0.90125" width="341.4" height="253.4" rx="17.8999" transform="matrix(0.975342 0.220697 -0.423567 0.905865 108.402 -0.0125809)" stroke="#9797A9" stroke-opacity="0.3" stroke-width="1.6"/>
</g>
<defs>
<filter id="filter0_d_713_3680" x="0" y="0" width="454.552" height="326.695" filterUnits="userSpaceOnUse" color-interpolation-filters="sRGB">
<feFlood flood-opacity="0" result="BackgroundImageFix"/>
<feColorMatrix in="SourceAlpha" type="matrix" values="0 0 0 0 0 0 0 0 0 0 0 0 0 0 0 0 0 0 127 0" result="hardAlpha"/>
<feOffset dx="8" dy="16"/>
<feGaussianBlur stdDeviation="2"/>
<feComposite in2="hardAlpha" operator="out"/>
<feColorMatrix type="matrix" values="0 0 0 0 0 0 0 0 0 0 0 0 0 0 0 0 0 0 0.25 0"/>
<feBlend mode="normal" in2="BackgroundImageFix" result="effect1_dropShadow_713_3680"/>
<feBlend mode="normal" in="SourceGraphic" in2="effect1_dropShadow_713_3680" result="shape"/>
</filter>
<linearGradient id="paint0_linear_713_3680" x1="398.792" y1="84.5569" x2="414.112" y2="101.73" gradientUnits="userSpaceOnUse">
<stop stop-color="#2DD4BF"/>
<stop offset="1" stop-color="#3B82F6"/>
</linearGradient>
<clipPath id="clip0_713_3680">
<rect width="343" height="255" rx="18.6999" transform="matrix(0.975342 0.220697 -0.423567 0.905865 108.01 0)" fill="white"/>
</clipPath>
</defs>
</svg>
