<svg width="145" height="46" viewBox="0 0 145 46" fill="none" xmlns="http://www.w3.org/2000/svg">
<g clip-path="url(#clip0_340_1328)">
<path d="M107.935 23.1768C107.935 25.3091 108.355 27.4206 109.171 29.3906C109.987 31.3606 111.183 33.1506 112.691 34.6584C114.199 36.1662 115.989 37.3622 117.959 38.1782C119.929 38.9942 122.04 39.4142 124.172 39.4142M107.935 23.1768C107.935 21.0445 108.355 18.933 109.171 16.963C109.987 14.993 111.183 13.203 112.691 11.6952C114.199 10.1875 115.989 8.99143 117.959 8.17543C119.929 7.35942 122.04 6.93943 124.172 6.93943M107.935 23.1768H111.543M124.172 39.4142C126.305 39.4142 128.416 38.9942 130.386 38.1782C132.356 37.3622 134.146 36.1662 135.654 34.6584C137.162 33.1506 138.358 31.3606 139.174 29.3906C139.99 27.4206 140.41 25.3091 140.41 23.1768M124.172 39.4142V35.8059M140.41 23.1768C140.41 21.0445 139.99 18.933 139.174 16.963C138.358 14.993 137.162 13.203 135.654 11.6952C134.146 10.1875 132.356 8.99143 130.386 8.17543C128.416 7.35942 126.305 6.93943 124.172 6.93943M140.41 23.1768H136.801M124.172 6.93943V10.5477" stroke="#0051D7" stroke-width="2.56863" stroke-linecap="round" stroke-linejoin="round"/>
<path fill-rule="evenodd" clip-rule="evenodd" d="M123.122 18.9398C123.802 18.7018 124.543 18.7018 125.223 18.9398L131.736 21.2198L125.223 23.4997C124.543 23.7377 123.802 23.7377 123.122 23.4997L119.724 22.3098C120.233 22.2018 120.742 22.0991 121.253 22.0016C122.181 21.8238 123.111 21.6554 124.042 21.4967L124.228 21.4654L124.293 21.4546C124.485 21.4227 124.656 21.3158 124.769 21.1574C124.883 20.9991 124.928 20.8022 124.896 20.6101C124.864 20.4181 124.757 20.2466 124.599 20.1334C124.441 20.0202 124.244 19.9745 124.052 20.0064L123.983 20.0181L123.794 20.0504C122.853 20.2109 121.914 20.3809 120.976 20.5602C120.177 20.7139 119.34 20.8841 118.639 21.0475C118.109 21.1718 117.594 21.3049 117.235 21.439L116.608 21.2198L123.122 18.9398ZM115.932 22.5378L115.2 22.2815C114.195 21.9302 114.195 20.5094 115.2 20.1581L122.637 17.5552C123.631 17.2073 124.713 17.2073 125.707 17.5552L133.144 20.1581C134.149 20.5094 134.149 21.9302 133.144 22.2815L129.837 23.4391L130.23 26.585C130.264 26.8388 130.231 27.0971 130.134 27.3342C130.037 27.5712 129.88 27.7788 129.678 27.9364C128.095 29.1396 126.16 29.7881 124.172 29.7819C121.778 29.7819 119.882 28.7691 118.729 27.9559C118.51 27.7996 118.337 27.5868 118.23 27.3402C118.122 27.0936 118.084 26.8225 118.118 26.5557L118.507 23.4391L117.378 23.0437C117.24 23.1768 117.143 23.3476 117.101 23.535C117.186 23.6385 117.249 23.7584 117.285 23.8872C117.322 24.016 117.332 24.1509 117.314 24.2836C117.297 24.4164 117.252 24.5441 117.183 24.6588C117.114 24.7736 117.022 24.873 116.913 24.9509L116.917 24.9685L117.774 28.8229C117.793 28.9087 117.792 28.9976 117.772 29.0831C117.752 29.1687 117.714 29.2487 117.659 29.3173C117.604 29.3858 117.534 29.4412 117.455 29.4792C117.376 29.5173 117.289 29.5371 117.201 29.5372H115.488C115.4 29.5373 115.313 29.5175 115.234 29.4795C115.154 29.4415 115.085 29.3862 115.03 29.3176C114.975 29.2491 114.936 29.169 114.916 29.0834C114.896 28.9978 114.895 28.9087 114.914 28.8229L115.771 24.9675L115.775 24.9509C115.663 24.8705 115.569 24.7673 115.5 24.6479C115.43 24.5286 115.386 24.3959 115.372 24.2585C115.357 24.1212 115.372 23.9823 115.415 23.851C115.458 23.7197 115.528 23.599 115.621 23.4968C115.624 23.4655 115.629 23.4312 115.635 23.394C115.682 23.0931 115.782 22.8031 115.932 22.5378ZM119.924 23.9352L119.574 26.7377C119.573 26.7481 119.574 26.7546 119.576 26.7572C120.598 27.4774 122.197 28.3141 124.172 28.3141C126.191 28.3141 127.773 27.5469 128.774 26.7797V26.767L128.42 23.9352L125.707 24.8843C124.713 25.2322 123.631 25.2322 122.637 24.8843L119.924 23.9352Z" fill="#0051D7"/>
</g>
<path d="M17.1806 32H14.6739V23.6267H4.43391V32H1.95391V13.3333H4.43391V21.3867H14.6739V13.3333H17.1806V32ZM25.5298 21.6267V23.68H18.3832V21.6267H25.5298ZM28.4839 27.2533L26.5106 32H23.9239L31.9772 13.3333H34.4306L42.5106 32H39.8706L37.8972 27.2533H28.4839ZM33.2039 15.9733L29.2839 25.2267H37.0972L33.2039 15.9733ZM44.4661 13.3333V32H41.9861V13.3333H44.4661ZM64.1574 22.5867V29.8133C63.2863 30.5956 62.2641 31.1911 61.0908 31.6C59.9352 32.0089 58.7263 32.2133 57.4641 32.2133C55.6686 32.2133 54.0508 31.8044 52.6108 30.9867C51.1886 30.1511 50.0686 29.0133 49.2508 27.5733C48.433 26.1156 48.0241 24.48 48.0241 22.6667C48.0241 20.8533 48.433 19.2178 49.2508 17.76C50.0686 16.3022 51.1974 15.1644 52.6374 14.3467C54.0774 13.5289 55.7041 13.12 57.5174 13.12C58.9219 13.12 60.2108 13.36 61.3841 13.84C62.5574 14.32 63.5441 15.0222 64.3441 15.9467L62.7708 17.5467C61.4197 16.0889 59.7041 15.36 57.6241 15.36C56.273 15.36 55.0552 15.68 53.9708 16.32C52.8863 16.9422 52.0419 17.8133 51.4374 18.9333C50.833 20.0356 50.5308 21.28 50.5308 22.6667C50.5308 24.0533 50.833 25.2978 51.4374 26.4C52.0419 27.5022 52.8774 28.3733 53.9441 29.0133C55.0286 29.6356 56.2463 29.9467 57.5974 29.9467C59.2863 29.9467 60.7086 29.4933 61.8641 28.5867V22.5867H64.1574ZM67.9176 20.5067C68.3442 19.6178 68.9753 18.9333 69.8109 18.4533C70.6464 17.9733 71.6509 17.7333 72.8242 17.7333V20.1067C72.682 20.0889 72.4953 20.08 72.2642 20.08C70.9487 20.08 69.9087 20.5067 69.1442 21.36C68.3976 22.1956 68.0242 23.3867 68.0242 24.9333V32H65.6242V17.8933H67.9176V20.5067ZM77.9746 17.7333C79.8235 17.7333 81.2369 18.2133 82.2146 19.1733C83.1924 20.1333 83.6813 21.5467 83.6813 23.4133V32H81.4413V29.7067C81.0502 30.4889 80.4635 31.0933 79.6813 31.52C78.9169 31.9289 77.9924 32.1333 76.908 32.1333C75.3791 32.1333 74.1791 31.76 73.308 31.0133C72.4369 30.2489 72.0013 29.2533 72.0013 28.0267C72.0013 26.8 72.428 25.8222 73.2813 25.0933C74.1524 24.3467 75.5035 23.9733 77.3346 23.9733H81.2813C81.2813 23.3689 81.228 22.8978 81.1213 22.56C81.0146 21.6533 80.6769 20.9689 80.108 20.5067C79.5391 20.0267 78.7391 19.7867 77.708 19.7867C76.8902 19.7867 76.0991 19.9289 75.3346 20.2133C74.5702 20.4978 73.9213 20.8889 73.388 21.3867L72.4546 19.6267C73.148 19.0222 73.9746 18.56 74.9346 18.24C75.9124 17.9022 76.9257 17.7333 77.9746 17.7333ZM77.4413 30.3733C78.3835 30.3733 79.1835 30.1511 79.8413 29.7067C80.4991 29.2444 80.9791 28.5867 81.2813 27.7333V25.5467H77.548C76.428 25.5467 75.6102 25.76 75.0946 26.1867C74.5969 26.5956 74.348 27.1644 74.348 27.8933C74.348 28.6578 74.6235 29.2622 75.1746 29.7067C75.7257 30.1511 76.4813 30.3733 77.4413 30.3733ZM97.9362 32H95.6429V29.28C95.1273 30.1867 94.4429 30.8889 93.5895 31.3867C92.7362 31.8844 91.7673 32.1333 90.6829 32.1333C89.4384 32.1333 88.3095 31.8311 87.2962 31.2267C86.2829 30.6222 85.4829 29.7778 84.8962 28.6933C84.3273 27.5911 84.0429 26.3378 84.0429 24.9333C84.0429 23.5289 84.3273 22.2844 84.8962 21.2C85.4829 20.0978 86.2829 19.2444 87.2962 18.64C88.3095 18.0356 89.4384 17.7333 90.6829 17.7333C91.7318 17.7333 92.674 17.9733 93.5095 18.4533C94.3629 18.9333 95.0384 19.6178 95.5362 20.5067V12.2133H97.9362V32ZM91.0295 30.0267C91.8829 30.0267 92.6562 29.8222 93.3495 29.4133C94.0429 28.9867 94.5851 28.3911 94.9762 27.6267C95.3851 26.8444 95.5895 25.9467 95.5895 24.9333C95.5895 23.9378 95.3851 23.0578 94.9762 22.2933C94.5851 21.5111 94.0429 20.9156 93.3495 20.5067C92.6562 20.08 91.8829 19.8667 91.0295 19.8667C90.1584 19.8667 89.3762 20.08 88.6829 20.5067C87.9895 20.9156 87.4473 21.5111 87.0562 22.2933C86.6651 23.0578 86.4695 23.9378 86.4695 24.9333C86.4695 25.9467 86.6651 26.8444 87.0562 27.6267C87.4473 28.3911 87.9895 28.9867 88.6829 29.4133C89.3762 29.8222 90.1584 30.0267 91.0295 30.0267Z" fill="#0F172A"/>
<defs>
<clipPath id="clip0_340_1328">
<rect width="41.7669" height="45.8091" fill="white" transform="translate(103.232)"/>
</clipPath>
</defs>
</svg>
