<svg width="40" height="40" viewBox="0 0 40 40" fill="none" xmlns="http://www.w3.org/2000/svg">
<rect width="40" height="40" rx="20" fill="#F0F5FF"/>
<path d="M12 28V12C12 11.4696 12.2107 10.9609 12.5858 10.5858C12.9609 10.2107 13.4696 10 14 10H21.56C22.0826 10.0001 22.5844 10.2047 22.958 10.57L27.398 14.912C27.5885 15.0982 27.7399 15.3207 27.8433 15.5662C27.9467 15.8118 28 16.0756 28 16.342V28C28 28.5304 27.7893 29.0391 27.4142 29.4142C27.0391 29.7893 26.5304 30 26 30H14C13.4696 30 12.9609 29.7893 12.5858 29.4142C12.2107 29.0391 12 28.5304 12 28Z" stroke="#00178E" stroke-width="2" stroke-linecap="round" stroke-linejoin="round"/>
<path d="M22 10V14C22 14.5304 22.2107 15.0391 22.5858 15.4142C22.9609 15.7893 23.4696 16 24 16H28" stroke="#00178E" stroke-width="2" stroke-linejoin="round"/>
</svg>
