<svg width="146" height="49" viewBox="0 0 146 49" fill="none" xmlns="http://www.w3.org/2000/svg">
<g clip-path="url(#clip0_696_1978)">
<path d="M108.033 25.1768C108.033 27.3092 108.453 29.4206 109.269 31.3906C110.085 33.3606 111.282 35.1506 112.789 36.6584C114.297 38.1662 116.087 39.3622 118.057 40.1782C120.027 40.9942 122.139 41.4142 124.271 41.4142M108.033 25.1768C108.033 23.0445 108.453 20.9331 109.269 18.9631C110.085 16.993 111.282 15.2031 112.789 13.6953C114.297 12.1875 116.087 10.9915 118.057 10.1755C120.027 9.35945 122.139 8.93945 124.271 8.93945M108.033 25.1768H111.642M124.271 41.4142C126.403 41.4142 128.515 40.9942 130.485 40.1782C132.455 39.3622 134.245 38.1662 135.752 36.6584C137.26 35.1506 138.456 33.3606 139.272 31.3906C140.088 29.4206 140.508 27.3092 140.508 25.1768M124.271 41.4142V37.8059M140.508 25.1768C140.508 23.0445 140.088 20.9331 139.272 18.9631C138.456 16.993 137.26 15.2031 135.752 13.6953C134.245 12.1875 132.455 10.9915 130.485 10.1755C128.515 9.35945 126.403 8.93945 124.271 8.93945M140.508 25.1768H136.9M124.271 8.93945V12.5478" stroke="#0051D7" stroke-width="2.56863" stroke-linecap="round" stroke-linejoin="round"/>
<path fill-rule="evenodd" clip-rule="evenodd" d="M123.221 20.9394C123.901 20.7015 124.642 20.7015 125.322 20.9394L131.835 23.2194L125.322 25.4994C124.642 25.7374 123.901 25.7374 123.221 25.4994L119.823 24.3095C120.331 24.2015 120.841 24.0987 121.352 24.0012C122.28 23.8234 123.21 23.6551 124.141 23.4963L124.327 23.465L124.391 23.4543C124.583 23.4223 124.755 23.3154 124.868 23.1571C124.981 22.9987 125.027 22.8018 124.995 22.6098C124.963 22.4177 124.856 22.2462 124.698 22.133C124.54 22.0198 124.343 21.9741 124.151 22.006L124.082 22.0178L123.893 22.0501C122.952 22.2106 122.013 22.3805 121.075 22.5599C120.276 22.7135 119.439 22.8838 118.737 23.0472C118.208 23.1715 117.692 23.3045 117.334 23.4386L116.707 23.2194L123.221 20.9394ZM116.031 24.5375L115.299 24.2811C114.294 23.9298 114.294 22.509 115.299 22.1577L122.736 19.5548C123.73 19.207 124.812 19.207 125.806 19.5548L133.243 22.1577C134.248 22.509 134.248 23.9298 133.243 24.2811L129.936 25.4387L130.329 28.5847C130.363 28.8385 130.33 29.0967 130.233 29.3338C130.136 29.5709 129.979 29.7785 129.777 29.936C128.194 31.1392 126.259 31.7878 124.271 31.7815C121.877 31.7815 119.981 30.7687 118.827 29.9556C118.609 29.7992 118.436 29.5864 118.329 29.3398C118.221 29.0932 118.182 28.8221 118.217 28.5553L118.606 25.4387L117.477 25.0434C117.339 25.1764 117.242 25.3472 117.2 25.5346C117.285 25.6382 117.348 25.7581 117.384 25.8869C117.421 26.0156 117.431 26.1506 117.413 26.2833C117.396 26.416 117.351 26.5437 117.282 26.6585C117.213 26.7732 117.121 26.8726 117.012 26.9505L117.016 26.9681L117.872 30.8225C117.891 30.9083 117.891 30.9972 117.871 31.0828C117.851 31.1683 117.812 31.2483 117.757 31.3169C117.702 31.3854 117.633 31.4408 117.554 31.4789C117.475 31.5169 117.388 31.5368 117.3 31.5369H115.587C115.499 31.5369 115.412 31.5172 115.333 31.4792C115.253 31.4412 115.184 31.3858 115.128 31.3173C115.073 31.2487 115.035 31.1687 115.015 31.083C114.995 30.9974 114.994 30.9084 115.013 30.8225L115.869 26.9672L115.874 26.9505C115.762 26.8701 115.668 26.7669 115.598 26.6476C115.529 26.5282 115.485 26.3955 115.471 26.2582C115.456 26.1208 115.471 25.9819 115.514 25.8506C115.557 25.7193 115.627 25.5986 115.72 25.4964C115.723 25.4651 115.727 25.4309 115.733 25.3937C115.78 25.0928 115.881 24.8028 116.031 24.5375ZM120.023 25.9348L119.673 28.7373C119.672 28.7477 119.673 28.7543 119.675 28.7569C120.696 29.4771 122.295 30.3137 124.271 30.3137C126.29 30.3137 127.872 29.5465 128.873 28.7794V28.7667L128.519 25.9348L125.806 26.884C124.812 27.2318 123.73 27.2318 122.736 26.884L120.023 25.9348Z" fill="#0051D7"/>
</g>
<path d="M17.2803 32.627H14.7736V24.2536H4.53361V32.627H2.05361V13.9603H4.53361V22.0136H14.7736V13.9603H17.2803V32.627ZM25.6295 22.2536V24.307H18.4829V22.2536H25.6295ZM28.5836 27.8803L26.6103 32.627H24.0236L32.0769 13.9603H34.5303L42.6103 32.627H39.9703L37.9969 27.8803H28.5836ZM33.3036 16.6003L29.3836 25.8536H37.1969L33.3036 16.6003ZM44.5658 13.9603V32.627H42.0858V13.9603H44.5658ZM64.2572 23.2136V30.4403C63.386 31.2225 62.3638 31.8181 61.1905 32.227C60.0349 32.6358 58.826 32.8403 57.5638 32.8403C55.7683 32.8403 54.1505 32.4314 52.7105 31.6136C51.2883 30.7781 50.1683 29.6403 49.3505 28.2003C48.5327 26.7425 48.1238 25.107 48.1238 23.2936C48.1238 21.4803 48.5327 19.8447 49.3505 18.387C50.1683 16.9292 51.2971 15.7914 52.7371 14.9736C54.1771 14.1558 55.8038 13.747 57.6171 13.747C59.0216 13.747 60.3105 13.987 61.4838 14.467C62.6571 14.947 63.6438 15.6492 64.4438 16.5736L62.8705 18.1736C61.5194 16.7158 59.8038 15.987 57.7238 15.987C56.3727 15.987 55.1549 16.307 54.0705 16.947C52.986 17.5692 52.1416 18.4403 51.5371 19.5603C50.9327 20.6625 50.6305 21.907 50.6305 23.2936C50.6305 24.6803 50.9327 25.9247 51.5371 27.027C52.1416 28.1292 52.9771 29.0003 54.0438 29.6403C55.1283 30.2625 56.346 30.5736 57.6971 30.5736C59.386 30.5736 60.8083 30.1203 61.9638 29.2136V23.2136H64.2572ZM68.0173 21.1336C68.4439 20.2447 69.075 19.5603 69.9106 19.0803C70.7461 18.6003 71.7506 18.3603 72.9239 18.3603V20.7336C72.7817 20.7158 72.595 20.707 72.3639 20.707C71.0484 20.707 70.0084 21.1336 69.2439 21.987C68.4973 22.8225 68.1239 24.0136 68.1239 25.5603V32.627H65.7239V18.5203H68.0173V21.1336ZM78.0743 18.3603C79.9232 18.3603 81.3366 18.8403 82.3143 19.8003C83.2921 20.7603 83.781 22.1736 83.781 24.0403V32.627H81.541V30.3336C81.1499 31.1158 80.5632 31.7203 79.781 32.147C79.0166 32.5558 78.0921 32.7603 77.0077 32.7603C75.4788 32.7603 74.2788 32.387 73.4077 31.6403C72.5366 30.8758 72.101 29.8803 72.101 28.6536C72.101 27.427 72.5277 26.4492 73.381 25.7203C74.2521 24.9736 75.6032 24.6003 77.4343 24.6003H81.381C81.381 23.9958 81.3277 23.5247 81.221 23.187C81.1143 22.2803 80.7766 21.5958 80.2077 21.1336C79.6388 20.6536 78.8388 20.4136 77.8077 20.4136C76.9899 20.4136 76.1988 20.5558 75.4343 20.8403C74.6699 21.1247 74.021 21.5158 73.4877 22.0136L72.5543 20.2536C73.2477 19.6492 74.0743 19.187 75.0343 18.867C76.0121 18.5292 77.0254 18.3603 78.0743 18.3603ZM77.541 31.0003C78.4832 31.0003 79.2832 30.7781 79.941 30.3336C80.5988 29.8714 81.0788 29.2136 81.381 28.3603V26.1736H77.6477C76.5277 26.1736 75.7099 26.387 75.1943 26.8136C74.6966 27.2225 74.4477 27.7914 74.4477 28.5203C74.4477 29.2847 74.7232 29.8892 75.2743 30.3336C75.8254 30.7781 76.581 31.0003 77.541 31.0003ZM98.0359 32.627H95.7426V29.907C95.227 30.8136 94.5426 31.5158 93.6892 32.0136C92.8359 32.5114 91.867 32.7603 90.7826 32.7603C89.5381 32.7603 88.4092 32.4581 87.3959 31.8536C86.3826 31.2492 85.5826 30.4047 84.9959 29.3203C84.427 28.2181 84.1426 26.9647 84.1426 25.5603C84.1426 24.1558 84.427 22.9114 84.9959 21.827C85.5826 20.7247 86.3826 19.8714 87.3959 19.267C88.4092 18.6625 89.5381 18.3603 90.7826 18.3603C91.8315 18.3603 92.7737 18.6003 93.6092 19.0803C94.4626 19.5603 95.1381 20.2447 95.6359 21.1336V12.8403H98.0359V32.627ZM91.1292 30.6536C91.9826 30.6536 92.7559 30.4492 93.4492 30.0403C94.1426 29.6136 94.6848 29.0181 95.0759 28.2536C95.4848 27.4714 95.6892 26.5736 95.6892 25.5603C95.6892 24.5647 95.4848 23.6847 95.0759 22.9203C94.6848 22.1381 94.1426 21.5425 93.4492 21.1336C92.7559 20.707 91.9826 20.4936 91.1292 20.4936C90.2581 20.4936 89.4759 20.707 88.7826 21.1336C88.0892 21.5425 87.547 22.1381 87.1559 22.9203C86.7648 23.6847 86.5692 24.5647 86.5692 25.5603C86.5692 26.5736 86.7648 27.4714 87.1559 28.2536C87.547 29.0181 88.0892 29.6136 88.7826 30.0403C89.4759 30.4492 90.2581 30.6536 91.1292 30.6536Z" fill="#0F172A"/>
<defs>
<clipPath id="clip0_696_1978">
<rect width="41.7669" height="49" fill="white" transform="translate(103.331)"/>
</clipPath>
</defs>
</svg>
